<svg xmlns="http://www.w3.org/2000/svg" xmlns:xlink="http://www.w3.org/1999/xlink" width="500" zoomAndPan="magnify" viewBox="0 0 375 374.999991" height="500" preserveAspectRatio="xMidYMid meet" version="1.0"><defs><g/><clipPath id="7db208c25e"><path d="M 5.789062 108.894531 L 104.039062 108.894531 L 104.039062 162.144531 L 5.789062 162.144531 Z M 5.789062 108.894531 " clip-rule="nonzero"/></clipPath><clipPath id="2161b96320"><path d="M 35.933594 88.117188 L 74.183594 88.117188 L 74.183594 126.367188 L 35.933594 126.367188 Z M 35.933594 88.117188 " clip-rule="nonzero"/></clipPath><clipPath id="ad1b0c6990"><path d="M 44.679688 96.601562 L 65.679688 96.601562 L 65.679688 117.601562 L 44.679688 117.601562 Z M 44.679688 96.601562 " clip-rule="nonzero"/></clipPath><clipPath id="aa7f895edd"><path d="M 62 154 L 63.574219 154 L 63.574219 157 L 62 157 Z M 62 154 " clip-rule="nonzero"/></clipPath><clipPath id="87de6b951c"><path d="M 61 152 L 63.574219 152 L 63.574219 155 L 61 155 Z M 61 152 " clip-rule="nonzero"/></clipPath><clipPath id="bc99ae6cef"><path d="M 56 147.675781 L 58 147.675781 L 58 150 L 56 150 Z M 56 147.675781 " clip-rule="nonzero"/></clipPath><clipPath id="e354a086b7"><path d="M 54 147.675781 L 56 147.675781 L 56 149 L 54 149 Z M 54 147.675781 " clip-rule="nonzero"/></clipPath><clipPath id="78d3ed43a0"><path d="M 52 147.675781 L 54 147.675781 L 54 150 L 52 150 Z M 52 147.675781 " clip-rule="nonzero"/></clipPath><clipPath id="75faca9aad"><path d="M 46.324219 152 L 49 152 L 49 155 L 46.324219 155 Z M 46.324219 152 " clip-rule="nonzero"/></clipPath><clipPath id="c968a8577f"><path d="M 46.324219 154 L 48 154 L 48 157 L 46.324219 157 Z M 46.324219 154 " clip-rule="nonzero"/></clipPath><clipPath id="3ff66db223"><path d="M 46.324219 156 L 48 156 L 48 159 L 46.324219 159 Z M 46.324219 156 " clip-rule="nonzero"/></clipPath><clipPath id="8b06359d61"><path d="M 46.324219 158 L 49 158 L 49 161 L 46.324219 161 Z M 46.324219 158 " clip-rule="nonzero"/></clipPath><clipPath id="cc75743cfa"><path d="M 52 163 L 54 163 L 54 164.925781 L 52 164.925781 Z M 52 163 " clip-rule="nonzero"/></clipPath><clipPath id="a81493598f"><path d="M 54 163 L 56 163 L 56 164.925781 L 54 164.925781 Z M 54 163 " clip-rule="nonzero"/></clipPath><clipPath id="4de9759b3a"><path d="M 53 163 L 57 163 L 57 164.925781 L 53 164.925781 Z M 53 163 " clip-rule="nonzero"/></clipPath><clipPath id="2e22774cd5"><path d="M 56 163 L 58 163 L 58 164.925781 L 56 164.925781 Z M 56 163 " clip-rule="nonzero"/></clipPath><clipPath id="abd91edbba"><path d="M 61 158 L 63.574219 158 L 63.574219 161 L 61 161 Z M 61 158 " clip-rule="nonzero"/></clipPath><clipPath id="9d472b1dd1"><path d="M 62 156 L 63.574219 156 L 63.574219 159 L 62 159 Z M 62 156 " clip-rule="nonzero"/></clipPath></defs><g clip-path="url(#7db208c25e)"><path fill="#ffffff" d="M 55.019531 135.117188 C 65.433594 130.328125 77.929688 124.492188 77.929688 124.492188 C 77.929688 124.492188 79.050781 125.859375 79.929688 127.773438 C 80.808594 129.683594 81.117188 131.421875 81.117188 131.421875 C 81.117188 131.421875 72.726562 135.207031 63.976562 139.207031 C 65.386719 139.84375 66.558594 140.363281 67.398438 140.726562 C 69.023438 141.425781 74.390625 141.058594 74.390625 141.058594 C 75.460938 140.59375 76.613281 140.3125 77.789062 140.242188 C 77.789062 140.242188 78.277344 139.179688 78.644531 138.386719 C 78.859375 137.917969 79.417969 137.710938 79.886719 137.925781 C 81.511719 138.675781 85.042969 140.300781 86.667969 141.046875 C 87.140625 141.265625 87.347656 141.820312 87.128906 142.289062 L 86.277344 144.144531 C 88.421875 146.972656 88.976562 150.859375 87.390625 154.304688 C 85.808594 157.75 82.492188 159.859375 78.949219 160.070312 C 78.949219 160.070312 78.550781 160.9375 78.234375 161.632812 C 78.015625 162.101562 77.460938 162.308594 76.988281 162.089844 C 75.363281 161.34375 71.832031 159.71875 70.207031 158.972656 C 69.738281 158.753906 69.53125 158.199219 69.746094 157.726562 C 70.066406 157.03125 70.464844 156.167969 70.464844 156.167969 C 69.753906 155.226562 69.214844 154.171875 68.875 153.050781 C 68.875 153.050781 65.808594 148.453125 64.210938 147.65625 C 62.429688 146.765625 59.03125 145.171875 55.019531 143.316406 C 51.007812 145.171875 47.609375 146.765625 45.832031 147.65625 C 44.230469 148.453125 41.164062 153.050781 41.164062 153.050781 C 40.824219 154.171875 40.285156 155.226562 39.574219 156.167969 C 39.574219 156.167969 39.972656 157.03125 40.292969 157.726562 C 40.507812 158.199219 40.304688 158.753906 39.832031 158.972656 C 38.207031 159.71875 34.675781 161.34375 33.050781 162.089844 C 32.578125 162.308594 32.023438 162.101562 31.808594 161.632812 C 31.488281 160.9375 31.089844 160.070312 31.089844 160.070312 C 27.546875 159.859375 24.234375 157.75 22.648438 154.304688 C 21.0625 150.859375 21.621094 146.972656 23.761719 144.144531 L 22.910156 142.289062 C 22.695312 141.820312 22.898438 141.265625 23.371094 141.046875 C 24.996094 140.300781 28.527344 138.675781 30.152344 137.925781 C 30.625 137.710938 31.179688 137.917969 31.394531 138.386719 C 31.761719 139.179688 32.25 140.242188 32.25 140.242188 C 33.425781 140.3125 34.578125 140.59375 35.648438 141.058594 C 35.648438 141.058594 41.015625 141.425781 42.640625 140.726562 C 43.480469 140.363281 44.652344 139.84375 46.066406 139.207031 C 37.3125 135.207031 28.921875 131.421875 28.921875 131.421875 C 28.921875 131.421875 29.230469 129.683594 30.113281 127.773438 C 30.992188 125.859375 32.109375 124.492188 32.109375 124.492188 C 32.109375 124.492188 44.609375 130.328125 55.019531 135.117188 Z M 33.273438 159.5625 C 34.035156 159.539062 34.902344 159.285156 35.726562 158.945312 C 36.339844 158.695312 36.933594 158.394531 37.441406 158.109375 C 38.105469 157.738281 38.625 157.390625 38.882812 157.214844 C 38.882812 157.214844 39.359375 158.25 39.359375 158.25 C 38.984375 158.429688 38 158.898438 36.917969 159.429688 C 35.113281 160.3125 33.035156 161.351562 33.035156 161.351562 C 33.035156 161.351562 35.175781 160.453125 37.023438 159.65625 C 38.433594 159.046875 39.667969 158.496094 39.667969 158.496094 C 39.757812 158.457031 39.796875 158.351562 39.757812 158.261719 L 39.117188 156.875 C 39.09375 156.828125 39.050781 156.792969 39 156.777344 C 38.949219 156.765625 38.894531 156.777344 38.851562 156.808594 C 38.851562 156.808594 38.210938 157.292969 37.296875 157.863281 C 36.808594 158.167969 36.242188 158.496094 35.652344 158.785156 C 34.859375 159.171875 34.023438 159.488281 33.273438 159.5625 Z M 76.765625 159.5625 C 76.003906 159.539062 75.136719 159.285156 74.3125 158.945312 C 73.699219 158.695312 73.105469 158.394531 72.597656 158.109375 C 71.9375 157.738281 71.414062 157.390625 71.15625 157.214844 C 71.15625 157.214844 70.679688 158.25 70.679688 158.25 C 71.054688 158.429688 72.039062 158.898438 73.121094 159.429688 C 74.929688 160.3125 77.003906 161.351562 77.003906 161.351562 C 77.003906 161.351562 74.863281 160.453125 73.015625 159.65625 C 71.605469 159.046875 70.371094 158.496094 70.371094 158.496094 C 70.28125 158.457031 70.242188 158.351562 70.285156 158.261719 L 70.921875 156.875 C 70.945312 156.828125 70.988281 156.792969 71.039062 156.777344 C 71.089844 156.765625 71.144531 156.777344 71.1875 156.808594 C 71.1875 156.808594 71.832031 157.292969 72.742188 157.863281 C 73.230469 158.167969 73.796875 158.496094 74.386719 158.785156 C 75.179688 159.171875 76.015625 159.488281 76.765625 159.5625 Z M 38.269531 147.121094 C 39.949219 150.761719 38.351562 155.082031 34.707031 156.757812 C 31.0625 158.433594 26.742188 156.835938 25.066406 153.191406 C 23.390625 149.550781 24.988281 145.230469 28.632812 143.554688 C 32.277344 141.878906 36.59375 143.476562 38.269531 147.121094 Z M 71.769531 147.121094 C 70.09375 150.761719 71.691406 155.082031 75.332031 156.757812 C 78.976562 158.433594 83.296875 156.835938 84.972656 153.191406 C 86.648438 149.550781 85.050781 145.230469 81.40625 143.554688 C 77.765625 141.878906 73.445312 143.476562 71.769531 147.121094 Z M 35.519531 148.386719 C 36.496094 150.511719 35.5625 153.027344 33.441406 154.003906 C 31.316406 154.980469 28.796875 154.050781 27.820312 151.925781 C 26.84375 149.800781 27.773438 147.285156 29.898438 146.308594 C 32.023438 145.332031 34.539062 146.261719 35.519531 148.386719 Z M 74.523438 148.386719 C 73.542969 150.511719 74.476562 153.027344 76.601562 154.003906 C 78.722656 154.980469 81.242188 154.050781 82.21875 151.925781 C 83.195312 149.800781 82.265625 147.285156 80.140625 146.308594 C 78.015625 145.332031 75.5 146.261719 74.523438 148.386719 Z M 61.398438 140.386719 L 60.644531 140.730469 C 63.855469 142.246094 66.011719 143.265625 66.011719 143.265625 C 66.054688 143.285156 68.230469 144.082031 67.695312 145.246094 C 67.203125 146.316406 65.058594 145.441406 65.019531 145.425781 C 65.019531 145.425781 61.941406 144.035156 57.667969 142.097656 C 57.339844 142.246094 57.015625 142.394531 56.695312 142.542969 C 60.117188 144.1875 62.976562 145.582031 64.503906 146.382812 C 65.996094 147.160156 67.84375 149.660156 67.84375 149.660156 C 67.929688 149.761719 68.074219 149.792969 68.195312 149.742188 C 68.316406 149.6875 68.390625 149.558594 68.371094 149.425781 C 68.371094 149.425781 68.109375 147.457031 68.875 145.789062 C 69.796875 143.777344 71.277344 143.058594 71.277344 143.058594 C 71.40625 142.996094 71.472656 142.851562 71.4375 142.714844 C 71.402344 142.574219 71.277344 142.480469 71.132812 142.484375 C 71.132812 142.484375 68.089844 142.691406 66.492188 142.058594 C 65.453125 141.648438 63.855469 140.980469 61.914062 140.148438 Z M 62.125 138.371094 C 70.484375 134.421875 78.640625 130.621094 78.640625 130.621094 C 78.792969 130.554688 79.738281 129.964844 79.011719 128.378906 C 78.339844 126.917969 77.296875 127.296875 77.144531 127.367188 C 77.144531 127.367188 66.746094 132.015625 57.296875 136.164062 L 57.316406 136.171875 L 57.296875 136.164062 C 53.957031 137.628906 50.738281 139.03125 48.136719 140.144531 L 48.125 140.148438 C 46.183594 140.980469 44.585938 141.648438 43.546875 142.058594 C 41.949219 142.691406 38.90625 142.484375 38.90625 142.484375 C 38.765625 142.480469 38.636719 142.574219 38.601562 142.714844 C 38.566406 142.851562 38.636719 142.996094 38.765625 143.058594 C 38.765625 143.058594 40.242188 143.777344 41.164062 145.789062 C 41.933594 147.457031 41.667969 149.425781 41.667969 149.425781 C 41.648438 149.558594 41.722656 149.6875 41.84375 149.742188 C 41.964844 149.792969 42.109375 149.761719 42.195312 149.660156 C 42.195312 149.660156 44.046875 147.160156 45.535156 146.382812 C 47.0625 145.582031 49.921875 144.1875 53.34375 142.542969 L 53.351562 142.542969 C 56.050781 141.246094 59.101562 139.796875 62.125 138.371094 L 62.121094 138.367188 Z M 77.578125 129.039062 C 77.578125 129.039062 78.097656 130.160156 76.960938 130.730469 C 71.53125 133.464844 45.019531 145.425781 45.019531 145.425781 C 44.980469 145.441406 42.835938 146.316406 42.34375 145.246094 C 41.808594 144.082031 43.984375 143.285156 44.027344 143.265625 C 44.027344 143.265625 69.988281 130.992188 75.839844 128.300781 C 76.996094 127.769531 77.578125 129.039062 77.578125 129.039062 Z M 25.558594 142.792969 C 26.082031 142.226562 26.855469 141.78125 27.664062 141.429688 C 28.265625 141.167969 28.890625 140.957031 29.445312 140.796875 C 30.476562 140.492188 31.273438 140.347656 31.273438 140.347656 C 31.328125 140.339844 31.371094 140.304688 31.398438 140.257812 C 31.421875 140.210938 31.421875 140.152344 31.398438 140.105469 C 31.398438 140.105469 31.164062 139.574219 30.953125 139.117188 C 30.792969 138.769531 30.648438 138.464844 30.648438 138.464844 C 30.605469 138.375 30.5 138.335938 30.414062 138.378906 C 30.414062 138.378906 29.191406 138.957031 27.8125 139.632812 C 26.003906 140.515625 23.929688 141.554688 23.929688 141.554688 C 23.929688 141.554688 26.070312 140.652344 27.914062 139.855469 C 29.019531 139.378906 30.015625 138.9375 30.398438 138.769531 C 30.453125 138.894531 30.535156 139.074219 30.625 139.269531 C 30.753906 139.550781 30.898438 139.859375 30.988281 140.054688 C 30.679688 140.125 30.070312 140.28125 29.355469 140.527344 C 28.800781 140.71875 28.183594 140.964844 27.589844 141.269531 C 26.796875 141.675781 26.050781 142.183594 25.558594 142.792969 Z M 84.480469 142.792969 C 83.957031 142.226562 83.183594 141.78125 82.375 141.429688 C 81.773438 141.167969 81.152344 140.957031 80.597656 140.796875 C 79.5625 140.492188 78.765625 140.347656 78.765625 140.347656 C 78.714844 140.339844 78.667969 140.304688 78.644531 140.257812 C 78.617188 140.210938 78.617188 140.152344 78.640625 140.105469 C 78.640625 140.105469 78.875 139.574219 79.085938 139.117188 C 79.246094 138.769531 79.390625 138.464844 79.390625 138.464844 C 79.433594 138.375 79.539062 138.335938 79.625 138.378906 C 79.625 138.378906 80.847656 138.957031 82.226562 139.632812 C 84.035156 140.515625 86.109375 141.554688 86.109375 141.554688 C 86.109375 141.554688 83.96875 140.652344 82.125 139.855469 C 81.019531 139.378906 80.023438 138.9375 79.640625 138.769531 C 79.585938 138.894531 79.503906 139.074219 79.414062 139.269531 C 79.285156 139.550781 79.140625 139.859375 79.050781 140.054688 C 79.359375 140.125 79.96875 140.28125 80.683594 140.527344 C 81.238281 140.71875 81.855469 140.964844 82.449219 141.269531 C 83.242188 141.675781 83.992188 142.183594 84.480469 142.792969 Z M 82.277344 138.53125 L 94.734375 132.804688 C 94.734375 132.804688 92.617188 125.882812 91.121094 122.625 C 89.621094 119.367188 85.742188 113.257812 85.742188 113.257812 L 73.289062 118.984375 L 74.210938 120.988281 C 74.210938 120.988281 78.179688 122.648438 80.429688 127.539062 C 82.855469 132.8125 81.453125 136.734375 81.453125 136.734375 Z M 27.761719 138.53125 L 15.304688 132.804688 C 15.304688 132.804688 17.421875 125.882812 18.917969 122.625 C 20.417969 119.367188 24.296875 113.257812 24.296875 113.257812 L 36.753906 118.984375 L 35.828125 120.988281 C 35.828125 120.988281 31.859375 122.648438 29.609375 127.539062 C 27.183594 132.8125 28.589844 136.734375 28.589844 136.734375 Z M 52.742188 136.164062 C 43.292969 132.015625 32.894531 127.367188 32.894531 127.367188 C 32.746094 127.296875 31.699219 126.917969 31.03125 128.378906 C 30.300781 129.964844 31.246094 130.554688 31.398438 130.621094 C 31.398438 130.621094 39.554688 134.421875 47.914062 138.371094 L 48.40625 138.144531 L 48.699219 138.011719 C 42.113281 135.003906 35.5 131.949219 33.082031 130.730469 C 31.945312 130.160156 32.460938 129.039062 32.460938 129.039062 C 32.460938 129.039062 33.042969 127.769531 34.199219 128.300781 C 37.0625 129.617188 44.746094 133.230469 51.84375 136.578125 L 52.390625 136.324219 Z M 93.722656 132 L 93.824219 132.546875 L 82.652344 137.683594 L 82.425781 137.195312 Z M 16.316406 132 L 16.21875 132.546875 L 27.386719 137.683594 L 27.613281 137.195312 Z M 93.25 130.308594 L 93.523438 131.234375 L 82.105469 136.488281 L 82.335938 135.332031 Z M 16.789062 130.308594 L 16.515625 131.234375 L 27.9375 136.488281 L 27.707031 135.332031 Z M 95.996094 132.222656 L 97.226562 131.65625 C 97.226562 131.65625 95.113281 124.734375 93.613281 121.476562 C 92.113281 118.21875 88.234375 112.109375 88.234375 112.109375 L 87.003906 112.675781 C 87.003906 112.675781 90.070312 117.019531 92.382812 122.042969 C 94.925781 127.570312 95.996094 132.222656 95.996094 132.222656 Z M 14.046875 132.222656 L 12.8125 131.65625 C 12.8125 131.65625 14.929688 124.734375 16.425781 121.476562 C 17.925781 118.21875 21.804688 112.109375 21.804688 112.109375 L 23.039062 112.675781 C 23.039062 112.675781 19.96875 117.019531 17.660156 122.042969 C 15.117188 127.570312 14.046875 132.222656 14.046875 132.222656 Z M 98.488281 131.074219 L 99.808594 130.46875 C 99.808594 130.46875 97.695312 123.546875 96.195312 120.289062 C 94.695312 117.03125 90.816406 110.921875 90.816406 110.921875 L 89.496094 111.53125 C 89.496094 111.53125 92.5625 115.875 94.875 120.898438 C 97.417969 126.425781 98.488281 131.074219 98.488281 131.074219 Z M 11.554688 131.074219 L 10.230469 130.46875 C 10.230469 130.46875 12.347656 123.546875 13.84375 120.289062 C 15.34375 117.03125 19.222656 110.921875 19.222656 110.921875 L 20.542969 111.53125 C 20.542969 111.53125 17.476562 115.875 15.164062 120.898438 C 12.625 126.425781 11.554688 131.074219 11.554688 131.074219 Z M 95.230469 108.890625 L 92.078125 110.34375 C 92.078125 110.34375 95.144531 114.6875 97.457031 119.710938 C 100 125.238281 101.070312 129.886719 101.070312 129.886719 L 104.222656 128.4375 C 104.222656 128.4375 103.152344 123.785156 100.609375 118.257812 C 98.296875 113.234375 95.230469 108.890625 95.230469 108.890625 Z M 14.808594 108.890625 L 17.960938 110.34375 C 17.960938 110.34375 14.894531 114.6875 12.582031 119.710938 C 10.042969 125.238281 8.972656 129.886719 8.972656 129.886719 L 5.816406 128.4375 C 5.816406 128.4375 6.886719 123.785156 9.429688 118.257812 C 11.742188 113.234375 14.808594 108.890625 14.808594 108.890625 Z M 87.792969 124.15625 C 88.476562 125.640625 87.824219 127.40625 86.335938 128.089844 C 84.851562 128.773438 83.085938 128.121094 82.402344 126.632812 C 81.71875 125.144531 82.371094 123.382812 83.859375 122.699219 C 85.34375 122.015625 87.109375 122.667969 87.792969 124.15625 Z M 22.25 124.15625 C 21.5625 125.640625 22.214844 127.40625 23.703125 128.089844 C 25.191406 128.773438 26.953125 128.121094 27.636719 126.632812 C 28.320312 125.144531 27.667969 123.382812 26.183594 122.699219 C 24.695312 122.015625 22.933594 122.667969 22.25 124.15625 Z M 87.117188 124.464844 C 87.628906 125.578125 87.140625 126.898438 86.027344 127.410156 C 84.914062 127.925781 83.59375 127.4375 83.082031 126.320312 C 82.566406 125.207031 83.054688 123.886719 84.167969 123.375 C 85.285156 122.863281 86.601562 123.351562 87.117188 124.464844 Z M 22.925781 124.464844 C 22.414062 125.578125 22.902344 126.898438 24.015625 127.410156 C 25.128906 127.925781 26.449219 127.4375 26.960938 126.320312 C 27.472656 125.207031 26.984375 123.886719 25.871094 123.375 C 24.757812 122.863281 23.4375 123.351562 22.925781 124.464844 Z M 86.484375 124.753906 C 86.835938 125.523438 86.5 126.429688 85.734375 126.78125 C 84.96875 127.132812 84.0625 126.796875 83.710938 126.03125 C 83.359375 125.265625 83.695312 124.359375 84.460938 124.007812 C 85.226562 123.65625 86.132812 123.988281 86.484375 124.753906 Z M 23.554688 124.753906 C 23.203125 125.523438 23.539062 126.429688 24.304688 126.78125 C 25.070312 127.132812 25.976562 126.796875 26.328125 126.03125 C 26.683594 125.265625 26.347656 124.359375 25.582031 124.007812 C 24.816406 123.65625 23.90625 123.988281 23.554688 124.753906 Z M 86.671875 116.003906 L 86.144531 115.191406 L 74.722656 120.445312 L 75.753906 121.027344 Z M 23.367188 116.003906 L 23.894531 115.191406 L 35.316406 120.445312 L 34.285156 121.027344 Z M 85.695312 114.546875 L 85.34375 114.113281 L 74.175781 119.25 L 74.398438 119.742188 Z M 24.34375 114.546875 L 24.695312 114.113281 L 35.867188 119.25 L 35.640625 119.742188 Z M 24.34375 114.546875 " fill-opacity="1" fill-rule="evenodd"/></g><g clip-path="url(#2161b96320)"><path fill="#ffffff" d="M 70.144531 112.410156 C 69.574219 114.070312 68.726562 115.628906 67.648438 117.011719 C 66.574219 118.394531 65.265625 119.597656 63.800781 120.558594 C 62.332031 121.519531 60.707031 122.234375 59.007812 122.660156 C 57.3125 123.089844 55.539062 123.234375 53.792969 123.089844 C 52.042969 122.949219 50.324219 122.515625 48.71875 121.808594 C 47.113281 121.105469 45.628906 120.132812 44.339844 118.945312 C 43.050781 117.757812 41.957031 116.355469 41.121094 114.816406 C 40.285156 113.273438 39.710938 111.597656 39.425781 109.867188 C 39.140625 108.140625 39.140625 106.359375 39.425781 104.632812 C 39.710938 102.902344 40.285156 101.222656 41.121094 99.683594 C 41.957031 98.144531 43.050781 96.742188 44.339844 95.554688 C 45.628906 94.367188 47.113281 93.394531 48.71875 92.6875 C 50.324219 91.984375 52.042969 91.550781 53.792969 91.40625 C 55.539062 91.265625 57.3125 91.40625 59.007812 91.835938 C 60.707031 92.265625 62.332031 92.980469 63.800781 93.941406 C 65.265625 94.898438 66.574219 96.105469 67.648438 97.488281 C 68.726562 98.867188 69.574219 100.429688 70.144531 102.085938 C 70.714844 103.742188 71 105.496094 71 107.25 C 71 109.003906 70.714844 110.753906 70.144531 112.410156 Z M 74.015625 109.683594 C 73.4375 109.375 72.855469 109.085938 72.265625 108.820312 C 72.3125 108.300781 72.335938 107.773438 72.335938 107.25 C 72.335938 106.734375 72.3125 106.21875 72.265625 105.703125 C 72.855469 105.441406 73.441406 105.152344 74.019531 104.84375 C 74.070312 104.839844 74.105469 104.789062 74.097656 104.734375 C 74.042969 104.320312 73.976562 103.90625 73.894531 103.496094 C 73.882812 103.441406 73.835938 103.40625 73.785156 103.414062 C 73.136719 103.308594 72.492188 103.226562 71.847656 103.164062 C 71.722656 102.65625 71.574219 102.148438 71.40625 101.652344 C 71.238281 101.164062 71.050781 100.683594 70.835938 100.214844 C 71.308594 99.773438 71.769531 99.308594 72.214844 98.828125 C 72.261719 98.808594 72.277344 98.746094 72.25 98.699219 C 72.0625 98.324219 71.867188 97.957031 71.65625 97.597656 C 71.625 97.546875 71.570312 97.53125 71.523438 97.554688 C 70.878906 97.667969 70.242188 97.796875 69.613281 97.953125 C 69.328125 97.507812 69.023438 97.082031 68.703125 96.667969 C 68.386719 96.257812 68.050781 95.867188 67.699219 95.488281 C 68 94.917969 68.285156 94.332031 68.550781 93.734375 C 68.585938 93.699219 68.585938 93.636719 68.542969 93.597656 C 68.246094 93.304688 67.941406 93.023438 67.625 92.75 C 67.582031 92.710938 67.519531 92.714844 67.488281 92.753906 C 66.914062 93.066406 66.351562 93.398438 65.808594 93.746094 C 65.394531 93.417969 64.96875 93.113281 64.53125 92.824219 C 64.097656 92.542969 63.652344 92.277344 63.199219 92.035156 C 63.300781 91.398438 63.378906 90.75 63.4375 90.097656 C 63.460938 90.050781 63.4375 89.996094 63.386719 89.972656 C 63.007812 89.789062 62.628906 89.621094 62.238281 89.464844 C 62.1875 89.445312 62.128906 89.464844 62.113281 89.511719 C 61.667969 89.996094 61.246094 90.492188 60.84375 91 C 60.347656 90.824219 59.84375 90.671875 59.335938 90.542969 C 58.835938 90.417969 58.328125 90.3125 57.820312 90.234375 C 57.707031 89.59375 57.570312 88.957031 57.414062 88.324219 C 57.417969 88.273438 57.378906 88.226562 57.324219 88.21875 C 56.910156 88.171875 56.492188 88.136719 56.074219 88.117188 C 56.019531 88.113281 55.972656 88.152344 55.972656 88.203125 C 55.710938 88.804688 55.472656 89.410156 55.253906 90.019531 C 54.730469 90.015625 54.207031 90.035156 53.683594 90.078125 C 53.167969 90.121094 52.65625 90.183594 52.148438 90.273438 C 51.835938 89.707031 51.5 89.148438 51.144531 88.597656 C 51.136719 88.546875 51.082031 88.515625 51.027344 88.527344 C 50.621094 88.617188 50.214844 88.71875 49.8125 88.835938 C 49.757812 88.851562 49.726562 88.902344 49.742188 88.949219 C 49.6875 89.601562 49.660156 90.253906 49.652344 90.902344 C 49.152344 91.066406 48.664062 91.257812 48.183594 91.46875 C 47.710938 91.675781 47.246094 91.902344 46.796875 92.152344 C 46.316406 91.71875 45.816406 91.300781 45.300781 90.894531 C 45.277344 90.851562 45.214844 90.839844 45.167969 90.871094 C 44.8125 91.085938 44.460938 91.316406 44.121094 91.554688 C 44.074219 91.585938 44.058594 91.644531 44.089844 91.6875 C 44.253906 92.320312 44.4375 92.945312 44.640625 93.558594 C 44.222656 93.878906 43.824219 94.21875 43.4375 94.574219 C 43.058594 94.921875 42.691406 95.289062 42.347656 95.671875 C 41.75 95.414062 41.144531 95.179688 40.527344 94.964844 C 40.488281 94.929688 40.425781 94.941406 40.390625 94.984375 C 40.125 95.304688 39.867188 95.632812 39.621094 95.96875 C 39.585938 96.015625 39.59375 96.074219 39.636719 96.105469 C 39.996094 96.652344 40.371094 97.183594 40.761719 97.699219 C 40.472656 98.136719 40.199219 98.585938 39.949219 99.046875 C 39.703125 99.5 39.480469 99.964844 39.273438 100.441406 C 38.628906 100.390625 37.976562 100.367188 37.324219 100.363281 C 37.277344 100.34375 37.222656 100.371094 37.203125 100.425781 C 37.050781 100.816406 36.914062 101.210938 36.792969 101.609375 C 36.777344 101.664062 36.800781 101.71875 36.851562 101.734375 C 37.371094 102.132812 37.898438 102.515625 38.4375 102.875 C 38.304688 103.382812 38.195312 103.894531 38.109375 104.414062 C 38.023438 104.921875 37.964844 105.433594 37.925781 105.949219 C 37.296875 106.113281 36.675781 106.300781 36.054688 106.511719 C 36.003906 106.507812 35.960938 106.554688 35.960938 106.609375 C 35.945312 107.027344 35.945312 107.441406 35.957031 107.859375 C 35.960938 107.914062 36.003906 107.957031 36.054688 107.957031 C 36.671875 108.167969 37.296875 108.355469 37.921875 108.523438 C 37.960938 109.046875 38.023438 109.566406 38.109375 110.085938 C 38.191406 110.59375 38.300781 111.097656 38.429688 111.597656 C 37.890625 111.957031 37.363281 112.335938 36.84375 112.738281 C 36.792969 112.75 36.769531 112.804688 36.785156 112.859375 C 36.90625 113.261719 37.042969 113.65625 37.191406 114.046875 C 37.210938 114.097656 37.265625 114.125 37.3125 114.109375 C 37.964844 114.105469 38.617188 114.082031 39.261719 114.035156 C 39.46875 114.515625 39.699219 114.988281 39.949219 115.453125 C 40.195312 115.90625 40.460938 116.347656 40.746094 116.777344 C 40.355469 117.292969 39.976562 117.824219 39.617188 118.371094 C 39.578125 118.398438 39.570312 118.460938 39.601562 118.503906 C 39.847656 118.84375 40.105469 119.171875 40.371094 119.492188 C 40.40625 119.535156 40.46875 119.542969 40.503906 119.511719 C 41.125 119.296875 41.730469 119.0625 42.328125 118.808594 C 42.679688 119.195312 43.050781 119.570312 43.4375 119.925781 C 43.816406 120.273438 44.210938 120.609375 44.621094 120.921875 C 44.414062 121.535156 44.230469 122.160156 44.066406 122.792969 C 44.035156 122.835938 44.050781 122.894531 44.09375 122.925781 C 44.4375 123.167969 44.785156 123.394531 45.140625 123.613281 C 45.191406 123.644531 45.25 123.628906 45.273438 123.585938 C 45.789062 123.183594 46.289062 122.765625 46.773438 122.332031 C 47.230469 122.585938 47.703125 122.820312 48.183594 123.03125 C 48.65625 123.238281 49.136719 123.425781 49.625 123.589844 C 49.632812 124.238281 49.660156 124.886719 49.710938 125.539062 C 49.699219 125.589844 49.730469 125.640625 49.785156 125.65625 C 50.183594 125.773438 50.589844 125.875 51 125.964844 C 51.054688 125.976562 51.105469 125.945312 51.117188 125.894531 C 51.472656 125.347656 51.808594 124.785156 52.121094 124.222656 C 52.636719 124.3125 53.160156 124.378906 53.683594 124.421875 C 54.195312 124.460938 54.710938 124.480469 55.230469 124.476562 C 55.445312 125.089844 55.679688 125.695312 55.941406 126.296875 C 55.941406 126.347656 55.992188 126.386719 56.046875 126.382812 C 56.460938 126.363281 56.878906 126.328125 57.292969 126.28125 C 57.347656 126.273438 57.390625 126.230469 57.382812 126.179688 C 57.542969 125.542969 57.679688 124.90625 57.792969 124.269531 C 58.3125 124.1875 58.828125 124.085938 59.335938 123.957031 C 59.835938 123.828125 60.332031 123.679688 60.816406 123.507812 C 61.21875 124.015625 61.640625 124.511719 62.082031 124.996094 C 62.101562 125.042969 62.160156 125.066406 62.210938 125.042969 C 62.597656 124.890625 62.980469 124.722656 63.359375 124.539062 C 63.410156 124.515625 63.433594 124.460938 63.410156 124.414062 C 63.355469 123.761719 63.273438 123.117188 63.175781 122.476562 C 63.636719 122.230469 64.089844 121.960938 64.53125 121.675781 C 64.960938 121.390625 65.378906 121.089844 65.785156 120.769531 C 66.332031 121.121094 66.890625 121.449219 67.464844 121.765625 C 67.5 121.804688 67.558594 121.804688 67.601562 121.769531 C 67.917969 121.496094 68.226562 121.214844 68.523438 120.921875 C 68.5625 120.882812 68.566406 120.820312 68.53125 120.785156 C 68.265625 120.1875 67.980469 119.601562 67.679688 119.027344 C 68.039062 118.644531 68.378906 118.246094 68.703125 117.832031 C 69.019531 117.425781 69.320312 117.003906 69.597656 116.570312 C 70.226562 116.722656 70.863281 116.859375 71.507812 116.96875 C 71.554688 116.996094 71.613281 116.976562 71.640625 116.929688 C 71.851562 116.570312 72.050781 116.203125 72.238281 115.828125 C 72.261719 115.777344 72.246094 115.71875 72.203125 115.695312 C 71.757812 115.214844 71.296875 114.753906 70.828125 114.308594 C 71.042969 113.832031 71.234375 113.34375 71.40625 112.84375 C 71.574219 112.355469 71.71875 111.859375 71.839844 111.359375 C 72.484375 111.300781 73.132812 111.21875 73.777344 111.113281 C 73.828125 111.121094 73.878906 111.085938 73.886719 111.03125 C 73.96875 110.621094 74.039062 110.210938 74.09375 109.796875 C 74.101562 109.742188 74.066406 109.691406 74.015625 109.683594 " fill-opacity="1" fill-rule="nonzero"/></g><path fill="#ffffff" d="M 68.96875 112.007812 C 68.445312 113.535156 67.664062 114.972656 66.671875 116.246094 C 65.675781 117.523438 64.46875 118.632812 63.117188 119.519531 C 61.765625 120.40625 60.269531 121.0625 58.707031 121.457031 C 57.140625 121.851562 55.507812 121.984375 53.890625 121.851562 C 52.28125 121.722656 50.695312 121.320312 49.21875 120.671875 C 47.742188 120.023438 46.371094 119.125 45.183594 118.03125 C 43.992188 116.933594 42.984375 115.640625 42.214844 114.222656 C 41.445312 112.804688 40.914062 111.257812 40.652344 109.664062 C 40.386719 108.074219 40.386719 106.425781 40.652344 104.835938 C 40.914062 103.242188 41.445312 101.695312 42.214844 100.277344 C 42.984375 98.855469 43.992188 97.5625 45.183594 96.46875 C 46.371094 95.375 47.742188 94.476562 49.21875 93.828125 C 50.695312 93.175781 52.28125 92.777344 53.890625 92.644531 C 55.507812 92.515625 57.140625 92.644531 58.707031 93.042969 C 60.269531 93.4375 61.765625 94.09375 63.117188 94.980469 C 64.46875 95.863281 65.675781 96.976562 66.671875 98.25 C 67.664062 99.527344 68.445312 100.964844 68.96875 102.488281 C 69.492188 104.015625 69.757812 105.628906 69.757812 107.25 C 69.757812 108.871094 69.492188 110.480469 68.96875 112.007812 Z M 67.144531 97.882812 C 66.109375 96.554688 64.855469 95.398438 63.445312 94.480469 C 62.039062 93.554688 60.480469 92.871094 58.851562 92.460938 C 57.222656 92.046875 55.523438 91.910156 53.84375 92.050781 C 52.167969 92.183594 50.515625 92.601562 48.976562 93.277344 C 47.4375 93.953125 46.011719 94.886719 44.777344 96.027344 C 43.539062 97.167969 42.488281 98.511719 41.6875 99.988281 C 40.886719 101.46875 40.332031 103.078125 40.058594 104.734375 C 39.785156 106.394531 39.785156 108.105469 40.058594 109.761719 C 40.332031 111.421875 40.886719 113.03125 41.6875 114.507812 C 42.488281 115.988281 43.539062 117.332031 44.777344 118.46875 C 46.011719 119.609375 47.4375 120.546875 48.976562 121.222656 C 50.515625 121.898438 52.167969 122.3125 53.84375 122.449219 C 55.523438 122.585938 57.222656 122.449219 58.851562 122.039062 C 60.480469 121.628906 62.039062 120.941406 63.445312 120.019531 C 64.855469 119.097656 66.109375 117.941406 67.144531 116.617188 C 68.175781 115.289062 68.992188 113.792969 69.535156 112.203125 C 70.082031 110.613281 70.355469 108.933594 70.355469 107.25 C 70.355469 105.5625 70.082031 103.886719 69.535156 102.296875 C 68.992188 100.707031 68.175781 99.207031 67.144531 97.882812 " fill-opacity="1" fill-rule="nonzero"/><g clip-path="url(#ad1b0c6990)"><path fill="#ffffff" d="M 56.28125 104.921875 L 59.664062 101.539062 L 60.292969 99.53125 L 63.71875 97.054688 L 65.242188 98.578125 L 62.765625 102.003906 L 60.75 102.632812 L 57.371094 106.011719 Z M 54.339844 110.011719 L 48.445312 115.902344 C 48.210938 116.136719 47.828125 116.136719 47.59375 115.902344 C 47.359375 115.667969 47.359375 115.289062 47.59375 115.050781 L 53.488281 109.160156 L 51.640625 107.308594 L 45.601562 113.347656 C 44.679688 114.269531 44.679688 115.769531 45.601562 116.695312 C 46.527344 117.617188 48.023438 117.617188 48.949219 116.695312 L 54.988281 110.65625 Z M 48.675781 96.617188 L 50.554688 99.296875 C 50.8125 99.667969 50.722656 100.175781 50.355469 100.433594 L 48.320312 101.863281 C 48.175781 101.960938 48.015625 102.011719 47.851562 102.011719 C 47.597656 102.011719 47.34375 101.890625 47.1875 101.664062 L 45.300781 98.976562 C 44.707031 100.265625 44.796875 101.820312 45.664062 103.058594 C 46.464844 104.195312 47.734375 104.804688 49.027344 104.804688 C 49.40625 104.804688 49.785156 104.753906 50.160156 104.648438 L 57.414062 111.902344 C 56.734375 113.207031 56.777344 114.828125 57.667969 116.125 C 58.460938 117.285156 59.746094 117.902344 61.054688 117.902344 C 61.15625 117.902344 61.261719 117.902344 61.363281 117.890625 L 59.507812 115.1875 C 59.253906 114.816406 59.347656 114.316406 59.71875 114.058594 L 61.765625 112.648438 C 61.910156 112.550781 62.070312 112.507812 62.230469 112.507812 C 62.488281 112.507812 62.742188 112.628906 62.902344 112.855469 L 64.753906 115.5625 C 65.363281 114.285156 65.289062 112.726562 64.429688 111.476562 C 63.636719 110.320312 62.355469 109.699219 61.050781 109.699219 C 60.703125 109.699219 60.351562 109.742188 60.011719 109.832031 L 52.703125 102.527344 C 53.347656 101.222656 53.277344 99.617188 52.386719 98.34375 C 51.585938 97.207031 50.320312 96.601562 49.03125 96.601562 C 48.914062 96.601562 48.792969 96.605469 48.675781 96.617188 Z M 48.675781 96.617188 " fill-opacity="1" fill-rule="nonzero"/></g><path fill="#ffffff" d="M 59.597656 157.242188 C 59.621094 157.109375 59.640625 156.972656 59.652344 156.835938 C 59.902344 156.765625 60.152344 156.679688 60.402344 156.578125 C 60.390625 156.953125 60.339844 157.328125 60.25 157.695312 C 60.039062 157.53125 59.820312 157.378906 59.597656 157.242188 " fill-opacity="1" fill-rule="nonzero"/><path fill="#ffffff" d="M 60.765625 158.015625 C 60.910156 157.492188 60.984375 156.949219 60.984375 156.40625 L 60.402344 156.40625 C 60.402344 156.898438 60.335938 157.386719 60.203125 157.859375 L 60.765625 158.015625 " fill-opacity="1" fill-rule="nonzero"/><path fill="#ffffff" d="M 59.199219 158.445312 C 59.261719 158.324219 59.316406 158.199219 59.363281 158.070312 C 59.625 158.070312 59.890625 158.054688 60.15625 158.023438 C 60.042969 158.382812 59.890625 158.730469 59.707031 159.058594 C 59.546875 158.84375 59.378906 158.640625 59.199219 158.445312 " fill-opacity="1" fill-rule="nonzero"/><path fill="#ffffff" d="M 60.117188 159.507812 C 60.398438 159.042969 60.617188 158.539062 60.765625 158.015625 L 60.203125 157.859375 C 60.074219 158.332031 59.875 158.785156 59.621094 159.207031 L 60.117188 159.507812 " fill-opacity="1" fill-rule="nonzero"/><path fill="#ffffff" d="M 58.496094 159.5 C 58.585938 159.398438 58.671875 159.289062 58.753906 159.179688 C 59.003906 159.25 59.265625 159.308594 59.527344 159.351562 C 59.324219 159.664062 59.082031 159.957031 58.816406 160.222656 C 58.722656 159.972656 58.613281 159.730469 58.496094 159.5 " fill-opacity="1" fill-rule="nonzero"/><path fill="#ffffff" d="M 59.089844 160.765625 C 59.488281 160.398438 59.832031 159.972656 60.117188 159.507812 L 59.621094 159.207031 C 59.363281 159.625 59.050781 160.007812 58.695312 160.34375 L 59.089844 160.765625 " fill-opacity="1" fill-rule="nonzero"/><path fill="#ffffff" d="M 57.53125 160.324219 C 57.644531 160.25 57.757812 160.171875 57.867188 160.085938 C 58.089844 160.222656 58.324219 160.347656 58.566406 160.457031 C 58.285156 160.707031 57.976562 160.925781 57.648438 161.109375 C 57.621094 160.84375 57.582031 160.582031 57.53125 160.324219 " fill-opacity="1" fill-rule="nonzero"/><path fill="#ffffff" d="M 57.761719 161.707031 C 58.246094 161.453125 58.691406 161.136719 59.089844 160.765625 L 58.695312 160.34375 C 58.335938 160.679688 57.929688 160.964844 57.496094 161.191406 L 57.761719 161.707031 " fill-opacity="1" fill-rule="nonzero"/><path fill="#ffffff" d="M 56.382812 160.855469 C 56.511719 160.816406 56.640625 160.773438 56.769531 160.71875 C 56.945312 160.910156 57.140625 161.09375 57.34375 161.265625 C 57.003906 161.429688 56.648438 161.554688 56.28125 161.644531 C 56.328125 161.382812 56.363281 161.117188 56.382812 160.855469 " fill-opacity="1" fill-rule="nonzero"/><path fill="#ffffff" d="M 56.230469 162.25 C 56.761719 162.140625 57.28125 161.957031 57.761719 161.707031 L 57.496094 161.191406 C 57.0625 161.414062 56.59375 161.582031 56.113281 161.679688 L 56.230469 162.25 " fill-opacity="1" fill-rule="nonzero"/><path fill="#ffffff" d="M 55.128906 161.058594 C 55.265625 161.054688 55.40625 161.046875 55.539062 161.03125 C 55.660156 161.261719 55.796875 161.492188 55.945312 161.714844 C 55.574219 161.777344 55.195312 161.800781 54.820312 161.789062 C 54.9375 161.550781 55.042969 161.304688 55.128906 161.058594 " fill-opacity="1" fill-rule="nonzero"/><path fill="#ffffff" d="M 54.609375 162.359375 C 55.152344 162.394531 55.699219 162.359375 56.230469 162.25 L 56.113281 161.679688 C 55.632812 161.78125 55.140625 161.8125 54.648438 161.78125 L 54.609375 162.359375 " fill-opacity="1" fill-rule="nonzero"/><path fill="#ffffff" d="M 53.871094 160.917969 C 54.003906 160.953125 54.136719 160.980469 54.273438 161 C 54.324219 161.257812 54.394531 161.511719 54.480469 161.765625 C 54.105469 161.730469 53.734375 161.652344 53.375 161.539062 C 53.554688 161.339844 53.71875 161.132812 53.871094 160.917969 " fill-opacity="1" fill-rule="nonzero"/><path fill="#ffffff" d="M 53.019531 162.03125 C 53.53125 162.210938 54.070312 162.324219 54.609375 162.359375 L 54.648438 161.78125 C 54.160156 161.746094 53.675781 161.648438 53.214844 161.484375 L 53.019531 162.03125 " fill-opacity="1" fill-rule="nonzero"/><path fill="#ffffff" d="M 52.695312 160.441406 C 52.816406 160.507812 52.9375 160.574219 53.0625 160.628906 C 53.042969 160.890625 53.039062 161.15625 53.054688 161.421875 C 52.703125 161.285156 52.367188 161.109375 52.050781 160.902344 C 52.277344 160.761719 52.492188 160.605469 52.695312 160.441406 " fill-opacity="1" fill-rule="nonzero"/><path fill="#ffffff" d="M 51.574219 161.28125 C 52.019531 161.59375 52.507812 161.847656 53.019531 162.03125 L 53.214844 161.484375 C 52.75 161.320312 52.3125 161.089844 51.910156 160.808594 L 51.574219 161.28125 " fill-opacity="1" fill-rule="nonzero"/><path fill="#ffffff" d="M 51.695312 159.664062 C 51.789062 159.761719 51.890625 159.855469 51.996094 159.945312 C 51.90625 160.191406 51.832031 160.445312 51.773438 160.707031 C 51.472656 160.480469 51.195312 160.222656 50.949219 159.9375 C 51.207031 159.859375 51.453125 159.769531 51.695312 159.664062 " fill-opacity="1" fill-rule="nonzero"/><path fill="#ffffff" d="M 50.390625 160.171875 C 50.730469 160.59375 51.132812 160.96875 51.574219 161.28125 L 51.910156 160.808594 C 51.511719 160.523438 51.148438 160.1875 50.839844 159.804688 L 50.390625 160.171875 " fill-opacity="1" fill-rule="nonzero"/><path fill="#ffffff" d="M 50.9375 158.648438 C 51.003906 158.765625 51.074219 158.882812 51.152344 158.996094 C 51 159.210938 50.863281 159.4375 50.734375 159.671875 C 50.503906 159.371094 50.308594 159.050781 50.148438 158.707031 C 50.414062 158.703125 50.679688 158.683594 50.9375 158.648438 " fill-opacity="1" fill-rule="nonzero"/><path fill="#ffffff" d="M 49.542969 158.785156 C 49.761719 159.285156 50.046875 159.75 50.390625 160.171875 L 50.839844 159.804688 C 50.53125 159.425781 50.273438 159.003906 50.078125 158.554688 L 49.542969 158.785156 " fill-opacity="1" fill-rule="nonzero"/><path fill="#ffffff" d="M 50.484375 157.464844 C 50.515625 157.597656 50.550781 157.730469 50.59375 157.859375 C 50.390625 158.023438 50.195312 158.203125 50.011719 158.394531 C 49.871094 158.046875 49.769531 157.679688 49.707031 157.308594 C 49.964844 157.375 50.226562 157.429688 50.484375 157.464844 " fill-opacity="1" fill-rule="nonzero"/><path fill="#ffffff" d="M 49.105469 157.21875 C 49.179688 157.757812 49.328125 158.285156 49.542969 158.785156 L 50.078125 158.554688 C 49.878906 158.101562 49.746094 157.625 49.679688 157.140625 L 49.105469 157.21875 " fill-opacity="1" fill-rule="nonzero"/><path fill="#ffffff" d="M 50.367188 156.199219 C 50.363281 156.339844 50.363281 156.476562 50.367188 156.613281 C 50.128906 156.71875 49.890625 156.835938 49.660156 156.96875 C 49.621094 156.597656 49.621094 156.21875 49.660156 155.84375 C 49.890625 155.976562 50.128906 156.097656 50.367188 156.199219 " fill-opacity="1" fill-rule="nonzero"/><path fill="#ffffff" d="M 49.105469 155.59375 C 49.03125 156.132812 49.03125 156.679688 49.105469 157.21875 L 49.679688 157.140625 C 49.613281 156.652344 49.613281 156.160156 49.679688 155.671875 L 49.105469 155.59375 " fill-opacity="1" fill-rule="nonzero"/><path fill="#ffffff" d="M 50.59375 154.953125 C 50.550781 155.085938 50.515625 155.214844 50.484375 155.347656 C 50.226562 155.386719 49.964844 155.4375 49.707031 155.503906 C 49.769531 155.132812 49.871094 154.769531 50.011719 154.417969 C 50.195312 154.609375 50.390625 154.789062 50.59375 154.953125 " fill-opacity="1" fill-rule="nonzero"/><path fill="#ffffff" d="M 49.542969 154.027344 C 49.328125 154.527344 49.179688 155.054688 49.105469 155.59375 L 49.679688 155.671875 C 49.746094 155.1875 49.878906 154.710938 50.078125 154.261719 L 49.542969 154.027344 " fill-opacity="1" fill-rule="nonzero"/><path fill="#ffffff" d="M 51.152344 153.816406 C 51.074219 153.929688 51.003906 154.046875 50.9375 154.167969 C 50.679688 154.132812 50.414062 154.109375 50.148438 154.105469 C 50.308594 153.765625 50.503906 153.441406 50.734375 153.140625 C 50.863281 153.378906 51 153.601562 51.152344 153.816406 " fill-opacity="1" fill-rule="nonzero"/><path fill="#ffffff" d="M 50.390625 152.640625 C 50.046875 153.0625 49.761719 153.53125 49.542969 154.027344 L 50.078125 154.261719 C 50.273438 153.8125 50.53125 153.386719 50.839844 153.007812 L 50.390625 152.640625 " fill-opacity="1" fill-rule="nonzero"/><path fill="#ffffff" d="M 51.996094 152.867188 C 51.890625 152.957031 51.789062 153.050781 51.695312 153.148438 C 51.453125 153.046875 51.207031 152.953125 50.949219 152.875 C 51.195312 152.59375 51.472656 152.335938 51.773438 152.109375 C 51.832031 152.367188 51.90625 152.621094 51.996094 152.867188 " fill-opacity="1" fill-rule="nonzero"/><path fill="#ffffff" d="M 51.574219 151.53125 C 51.132812 151.847656 50.730469 152.21875 50.390625 152.640625 L 50.839844 153.007812 C 51.148438 152.628906 51.511719 152.289062 51.910156 152.007812 L 51.574219 151.53125 " fill-opacity="1" fill-rule="nonzero"/><path fill="#ffffff" d="M 53.0625 152.183594 C 52.9375 152.242188 52.816406 152.304688 52.695312 152.371094 C 52.492188 152.207031 52.277344 152.054688 52.050781 151.910156 C 52.367188 151.703125 52.703125 151.527344 53.054688 151.390625 C 53.039062 151.65625 53.042969 151.921875 53.0625 152.183594 " fill-opacity="1" fill-rule="nonzero"/><path fill="#ffffff" d="M 53.019531 150.785156 C 52.507812 150.964844 52.019531 151.21875 51.574219 151.53125 L 51.910156 152.007812 C 52.3125 151.722656 52.75 151.496094 53.214844 151.332031 L 53.019531 150.785156 " fill-opacity="1" fill-rule="nonzero"/><path fill="#ffffff" d="M 54.273438 151.8125 C 54.136719 151.835938 54.003906 151.863281 53.871094 151.894531 C 53.71875 151.683594 53.554688 151.476562 53.375 151.277344 C 53.734375 151.160156 54.105469 151.085938 54.480469 151.046875 C 54.394531 151.300781 54.324219 151.558594 54.273438 151.8125 " fill-opacity="1" fill-rule="nonzero"/><path fill="#ffffff" d="M 54.609375 150.453125 C 54.070312 150.488281 53.53125 150.601562 53.019531 150.785156 L 53.214844 151.332031 C 53.675781 151.167969 54.160156 151.066406 54.648438 151.035156 L 54.609375 150.453125 " fill-opacity="1" fill-rule="nonzero"/><path fill="#ffffff" d="M 55.539062 151.78125 C 55.40625 151.765625 55.265625 151.757812 55.128906 151.753906 C 55.042969 151.507812 54.9375 151.265625 54.820312 151.023438 C 55.195312 151.011719 55.574219 151.035156 55.945312 151.101562 C 55.796875 151.324219 55.660156 151.550781 55.539062 151.78125 " fill-opacity="1" fill-rule="nonzero"/><path fill="#ffffff" d="M 56.230469 150.5625 C 55.699219 150.453125 55.152344 150.417969 54.609375 150.453125 L 54.648438 151.035156 C 55.140625 151 55.632812 151.035156 56.113281 151.132812 L 56.230469 150.5625 " fill-opacity="1" fill-rule="nonzero"/><path fill="#ffffff" d="M 56.769531 152.09375 C 56.640625 152.042969 56.511719 151.996094 56.382812 151.957031 C 56.363281 151.695312 56.328125 151.433594 56.28125 151.167969 C 56.648438 151.257812 57.003906 151.382812 57.34375 151.546875 C 57.136719 151.71875 56.945312 151.902344 56.769531 152.09375 " fill-opacity="1" fill-rule="nonzero"/><path fill="#ffffff" d="M 57.761719 151.109375 C 57.28125 150.859375 56.761719 150.671875 56.230469 150.5625 L 56.113281 151.132812 C 56.59375 151.230469 57.0625 151.398438 57.496094 151.625 L 57.761719 151.109375 " fill-opacity="1" fill-rule="nonzero"/><path fill="#ffffff" d="M 57.867188 152.726562 C 57.757812 152.644531 57.644531 152.5625 57.53125 152.488281 C 57.582031 152.234375 57.621094 151.972656 57.648438 151.703125 C 57.976562 151.890625 58.285156 152.109375 58.566406 152.355469 C 58.324219 152.46875 58.089844 152.589844 57.867188 152.726562 " fill-opacity="1" fill-rule="nonzero"/><path fill="#ffffff" d="M 59.089844 152.046875 C 58.691406 151.675781 58.246094 151.359375 57.761719 151.109375 L 57.496094 151.625 C 57.929688 151.847656 58.335938 152.136719 58.695312 152.46875 L 59.089844 152.046875 " fill-opacity="1" fill-rule="nonzero"/><path fill="#ffffff" d="M 58.753906 153.632812 C 58.671875 153.523438 58.585938 153.417969 58.496094 153.3125 C 58.613281 153.082031 58.722656 152.839844 58.816406 152.589844 C 59.082031 152.855469 59.324219 153.148438 59.527344 153.464844 C 59.265625 153.503906 59.003906 153.5625 58.753906 153.632812 " fill-opacity="1" fill-rule="nonzero"/><path fill="#ffffff" d="M 60.117188 153.304688 C 59.832031 152.839844 59.488281 152.417969 59.089844 152.046875 L 58.695312 152.46875 C 59.050781 152.804688 59.363281 153.1875 59.621094 153.609375 L 60.117188 153.304688 " fill-opacity="1" fill-rule="nonzero"/><path fill="#ffffff" d="M 59.363281 154.742188 C 59.316406 154.613281 59.261719 154.488281 59.199219 154.367188 C 59.378906 154.175781 59.546875 153.96875 59.707031 153.753906 C 59.890625 154.082031 60.042969 154.429688 60.15625 154.789062 C 59.890625 154.757812 59.625 154.742188 59.363281 154.742188 " fill-opacity="1" fill-rule="nonzero"/><path fill="#ffffff" d="M 60.765625 154.796875 C 60.617188 154.273438 60.398438 153.769531 60.117188 153.304688 L 59.621094 153.609375 C 59.875 154.027344 60.074219 154.480469 60.203125 154.953125 L 60.765625 154.796875 " fill-opacity="1" fill-rule="nonzero"/><path fill="#ffffff" d="M 59.652344 155.976562 C 59.640625 155.839844 59.621094 155.703125 59.597656 155.570312 C 59.820312 155.433594 60.039062 155.28125 60.25 155.117188 C 60.339844 155.484375 60.390625 155.859375 60.402344 156.234375 C 60.152344 156.132812 59.902344 156.046875 59.652344 155.976562 " fill-opacity="1" fill-rule="nonzero"/><path fill="#ffffff" d="M 60.984375 156.40625 C 60.984375 155.863281 60.910156 155.320312 60.765625 154.796875 L 60.203125 154.953125 C 60.335938 155.425781 60.402344 155.917969 60.402344 156.40625 L 60.984375 156.40625 " fill-opacity="1" fill-rule="nonzero"/><g clip-path="url(#aa7f895edd)"><path fill="#ffffff" d="M 63.589844 154.769531 C 63.640625 155.03125 63.679688 155.296875 63.703125 155.566406 C 63.355469 155.785156 63.003906 155.980469 62.640625 156.152344 C 62.625 155.597656 62.542969 155.042969 62.40625 154.5 C 62.800781 154.566406 63.195312 154.65625 63.589844 154.769531 " fill-opacity="1" fill-rule="nonzero"/></g><path fill="#ffffff" d="M 61.503906 154.503906 C 61.683594 155.117188 61.773438 155.761719 61.773438 156.40625 L 62.644531 156.40625 C 62.644531 155.679688 62.542969 154.953125 62.339844 154.257812 L 61.503906 154.503906 " fill-opacity="1" fill-rule="nonzero"/><g clip-path="url(#87de6b951c)"><path fill="#ffffff" d="M 62.78125 152.417969 C 62.902344 152.65625 63.015625 152.902344 63.117188 153.148438 C 62.84375 153.457031 62.558594 153.746094 62.261719 154.015625 C 62.089844 153.484375 61.855469 152.976562 61.570312 152.496094 C 61.964844 152.449219 62.371094 152.421875 62.78125 152.417969 " fill-opacity="1" fill-rule="nonzero"/></g><path fill="#ffffff" d="M 60.703125 152.753906 C 61.050781 153.292969 61.320312 153.886719 61.503906 154.503906 L 62.339844 154.257812 C 62.132812 153.558594 61.828125 152.894531 61.4375 152.28125 L 60.703125 152.753906 " fill-opacity="1" fill-rule="nonzero"/><path fill="#ffffff" d="M 61.34375 150.394531 C 61.527344 150.589844 61.703125 150.789062 61.871094 151 C 61.695312 151.371094 61.503906 151.730469 61.296875 152.070312 C 60.976562 151.613281 60.609375 151.1875 60.203125 150.8125 C 60.570312 150.652344 60.949219 150.511719 61.34375 150.394531 " fill-opacity="1" fill-rule="nonzero"/><path fill="#ffffff" d="M 59.441406 151.300781 C 59.929688 151.722656 60.355469 152.210938 60.703125 152.753906 L 61.4375 152.28125 C 61.042969 151.671875 60.5625 151.117188 60.011719 150.640625 L 59.441406 151.300781 " fill-opacity="1" fill-rule="nonzero"/><path fill="#ffffff" d="M 59.394531 148.855469 C 59.625 148.988281 59.851562 149.136719 60.070312 149.289062 C 60.007812 149.695312 59.925781 150.09375 59.820312 150.476562 C 59.386719 150.128906 58.914062 149.824219 58.414062 149.574219 C 58.722656 149.320312 59.050781 149.078125 59.394531 148.855469 " fill-opacity="1" fill-rule="nonzero"/><path fill="#ffffff" d="M 57.824219 150.257812 C 58.410156 150.527344 58.957031 150.878906 59.441406 151.300781 L 60.011719 150.640625 C 59.464844 150.164062 58.847656 149.769531 58.1875 149.464844 L 57.824219 150.257812 " fill-opacity="1" fill-rule="nonzero"/><g clip-path="url(#bc99ae6cef)"><path fill="#ffffff" d="M 57.085938 147.925781 C 57.347656 147.992188 57.605469 148.066406 57.859375 148.152344 C 57.914062 148.558594 57.945312 148.964844 57.953125 149.363281 C 57.441406 149.148438 56.902344 148.992188 56.355469 148.894531 C 56.578125 148.5625 56.820312 148.238281 57.085938 147.925781 " fill-opacity="1" fill-rule="nonzero"/></g><path fill="#ffffff" d="M 55.980469 149.71875 C 56.617188 149.808594 57.238281 149.992188 57.824219 150.257812 L 58.1875 149.464844 C 57.527344 149.164062 56.824219 148.957031 56.101562 148.855469 L 55.980469 149.71875 " fill-opacity="1" fill-rule="nonzero"/><g clip-path="url(#e354a086b7)"><path fill="#ffffff" d="M 54.617188 147.6875 C 54.882812 147.675781 55.152344 147.675781 55.417969 147.6875 C 55.585938 148.0625 55.730469 148.441406 55.851562 148.824219 C 55.296875 148.761719 54.738281 148.761719 54.183594 148.824219 C 54.304688 148.441406 54.449219 148.0625 54.617188 147.6875 " fill-opacity="1" fill-rule="nonzero"/></g><path fill="#ffffff" d="M 54.054688 149.71875 C 54.691406 149.625 55.34375 149.625 55.980469 149.71875 L 56.101562 148.855469 C 55.382812 148.753906 54.652344 148.753906 53.929688 148.855469 L 54.054688 149.71875 " fill-opacity="1" fill-rule="nonzero"/><g clip-path="url(#78d3ed43a0)"><path fill="#ffffff" d="M 52.175781 148.152344 C 52.429688 148.066406 52.6875 147.992188 52.949219 147.925781 C 53.214844 148.238281 53.457031 148.5625 53.679688 148.894531 C 53.132812 148.992188 52.59375 149.148438 52.078125 149.363281 C 52.085938 148.964844 52.121094 148.558594 52.175781 148.152344 " fill-opacity="1" fill-rule="nonzero"/></g><path fill="#ffffff" d="M 52.210938 150.257812 C 52.796875 149.992188 53.417969 149.808594 54.054688 149.71875 L 53.929688 148.855469 C 53.210938 148.957031 52.507812 149.164062 51.847656 149.464844 L 52.210938 150.257812 " fill-opacity="1" fill-rule="nonzero"/><path fill="#ffffff" d="M 49.964844 149.289062 C 50.183594 149.136719 50.410156 148.988281 50.640625 148.855469 C 50.984375 149.078125 51.3125 149.320312 51.617188 149.574219 C 51.121094 149.824219 50.648438 150.128906 50.214844 150.476562 C 50.109375 150.09375 50.027344 149.695312 49.964844 149.289062 " fill-opacity="1" fill-rule="nonzero"/><path fill="#ffffff" d="M 50.59375 151.300781 C 51.078125 150.878906 51.625 150.527344 52.210938 150.257812 L 51.847656 149.464844 C 51.1875 149.769531 50.570312 150.164062 50.023438 150.640625 L 50.59375 151.300781 " fill-opacity="1" fill-rule="nonzero"/><path fill="#ffffff" d="M 48.164062 151 C 48.332031 150.789062 48.507812 150.589844 48.691406 150.394531 C 49.085938 150.511719 49.464844 150.652344 49.832031 150.8125 C 49.425781 151.191406 49.058594 151.613281 48.738281 152.070312 C 48.53125 151.730469 48.339844 151.375 48.164062 151 " fill-opacity="1" fill-rule="nonzero"/><path fill="#ffffff" d="M 49.332031 152.753906 C 49.679688 152.210938 50.105469 151.722656 50.59375 151.300781 L 50.023438 150.640625 C 49.472656 151.117188 48.992188 151.671875 48.597656 152.28125 L 49.332031 152.753906 " fill-opacity="1" fill-rule="nonzero"/><g clip-path="url(#75faca9aad)"><path fill="#ffffff" d="M 46.917969 153.148438 C 47.019531 152.902344 47.128906 152.65625 47.253906 152.417969 C 47.664062 152.421875 48.066406 152.449219 48.464844 152.496094 C 48.179688 152.976562 47.945312 153.484375 47.773438 154.015625 C 47.472656 153.746094 47.1875 153.457031 46.917969 153.148438 " fill-opacity="1" fill-rule="nonzero"/></g><path fill="#ffffff" d="M 48.53125 154.503906 C 48.714844 153.886719 48.984375 153.292969 49.332031 152.753906 L 48.597656 152.28125 C 48.207031 152.894531 47.898438 153.558594 47.695312 154.257812 L 48.53125 154.503906 " fill-opacity="1" fill-rule="nonzero"/><g clip-path="url(#c968a8577f)"><path fill="#ffffff" d="M 46.332031 155.566406 C 46.355469 155.296875 46.394531 155.03125 46.445312 154.769531 C 46.839844 154.65625 47.234375 154.566406 47.628906 154.5 C 47.488281 155.042969 47.410156 155.597656 47.394531 156.152344 C 47.03125 155.980469 46.675781 155.785156 46.332031 155.566406 " fill-opacity="1" fill-rule="nonzero"/></g><path fill="#ffffff" d="M 48.261719 156.40625 C 48.261719 155.761719 48.351562 155.117188 48.53125 154.503906 L 47.695312 154.257812 C 47.492188 154.953125 47.390625 155.679688 47.390625 156.40625 L 48.261719 156.40625 " fill-opacity="1" fill-rule="nonzero"/><g clip-path="url(#3ff66db223)"><path fill="#ffffff" d="M 46.445312 158.046875 C 46.394531 157.78125 46.355469 157.515625 46.332031 157.25 C 46.675781 157.03125 47.03125 156.832031 47.394531 156.660156 C 47.410156 157.21875 47.488281 157.773438 47.628906 158.3125 C 47.234375 158.246094 46.839844 158.15625 46.445312 158.046875 " fill-opacity="1" fill-rule="nonzero"/></g><path fill="#ffffff" d="M 48.53125 158.3125 C 48.351562 157.695312 48.261719 157.050781 48.261719 156.40625 L 47.390625 156.40625 C 47.390625 157.132812 47.492188 157.859375 47.695312 158.554688 L 48.53125 158.3125 " fill-opacity="1" fill-rule="nonzero"/><g clip-path="url(#8b06359d61)"><path fill="#ffffff" d="M 47.253906 160.394531 C 47.132812 160.15625 47.019531 159.914062 46.917969 159.664062 C 47.1875 159.355469 47.472656 159.066406 47.773438 158.796875 C 47.945312 159.328125 48.179688 159.835938 48.464844 160.316406 C 48.066406 160.367188 47.664062 160.390625 47.253906 160.394531 " fill-opacity="1" fill-rule="nonzero"/></g><path fill="#ffffff" d="M 49.332031 160.058594 C 48.984375 159.519531 48.714844 158.929688 48.53125 158.3125 L 47.695312 158.554688 C 47.898438 159.253906 48.207031 159.921875 48.597656 160.53125 L 49.332031 160.058594 " fill-opacity="1" fill-rule="nonzero"/><path fill="#ffffff" d="M 48.691406 162.417969 C 48.507812 162.226562 48.332031 162.023438 48.164062 161.8125 C 48.339844 161.441406 48.53125 161.082031 48.738281 160.742188 C 49.058594 161.199219 49.425781 161.625 49.832031 162.003906 C 49.464844 162.160156 49.085938 162.300781 48.691406 162.417969 " fill-opacity="1" fill-rule="nonzero"/><path fill="#ffffff" d="M 50.59375 161.515625 C 50.105469 161.09375 49.679688 160.601562 49.332031 160.058594 L 48.597656 160.53125 C 48.992188 161.140625 49.472656 161.695312 50.023438 162.171875 L 50.59375 161.515625 " fill-opacity="1" fill-rule="nonzero"/><path fill="#ffffff" d="M 50.640625 163.957031 C 50.410156 163.824219 50.183594 163.679688 49.964844 163.523438 C 50.027344 163.117188 50.109375 162.722656 50.214844 162.335938 C 50.648438 162.6875 51.121094 162.988281 51.617188 163.238281 C 51.3125 163.492188 50.984375 163.734375 50.640625 163.957031 " fill-opacity="1" fill-rule="nonzero"/><path fill="#ffffff" d="M 52.210938 162.554688 C 51.625 162.289062 51.078125 161.9375 50.59375 161.515625 L 50.023438 162.171875 C 50.570312 162.648438 51.1875 163.046875 51.847656 163.347656 L 52.210938 162.554688 " fill-opacity="1" fill-rule="nonzero"/><g clip-path="url(#cc75743cfa)"><path fill="#ffffff" d="M 52.949219 164.886719 C 52.6875 164.824219 52.429688 164.746094 52.175781 164.660156 C 52.121094 164.253906 52.085938 163.847656 52.078125 163.449219 C 52.59375 163.664062 53.132812 163.820312 53.679688 163.917969 C 53.457031 164.25 53.214844 164.574219 52.949219 164.886719 " fill-opacity="1" fill-rule="nonzero"/></g><path fill="#ffffff" d="M 54.054688 163.097656 C 53.417969 163.003906 52.796875 162.824219 52.210938 162.554688 L 51.847656 163.347656 C 52.507812 163.648438 53.210938 163.855469 53.929688 163.957031 L 54.054688 163.097656 " fill-opacity="1" fill-rule="nonzero"/><g clip-path="url(#a81493598f)"><path fill="#ffffff" d="M 55.417969 165.125 C 55.152344 165.136719 54.882812 165.136719 54.617188 165.125 C 54.449219 164.75 54.304688 164.371094 54.183594 163.988281 C 54.738281 164.050781 55.296875 164.050781 55.851562 163.988281 C 55.730469 164.371094 55.585938 164.75 55.417969 165.125 " fill-opacity="1" fill-rule="nonzero"/></g><g clip-path="url(#4de9759b3a)"><path fill="#ffffff" d="M 55.980469 163.097656 C 55.34375 163.1875 54.691406 163.1875 54.054688 163.097656 L 53.929688 163.957031 C 54.652344 164.0625 55.382812 164.0625 56.101562 163.957031 L 55.980469 163.097656 " fill-opacity="1" fill-rule="nonzero"/></g><g clip-path="url(#2e22774cd5)"><path fill="#ffffff" d="M 57.859375 164.660156 C 57.605469 164.746094 57.347656 164.824219 57.085938 164.886719 C 56.820312 164.574219 56.578125 164.25 56.355469 163.917969 C 56.902344 163.820312 57.441406 163.664062 57.953125 163.449219 C 57.945312 163.847656 57.914062 164.253906 57.859375 164.660156 " fill-opacity="1" fill-rule="nonzero"/></g><path fill="#ffffff" d="M 57.824219 162.554688 C 57.238281 162.824219 56.617188 163.003906 55.980469 163.097656 L 56.101562 163.957031 C 56.824219 163.855469 57.527344 163.648438 58.1875 163.347656 L 57.824219 162.554688 " fill-opacity="1" fill-rule="nonzero"/><path fill="#ffffff" d="M 60.070312 163.523438 C 59.851562 163.679688 59.625 163.824219 59.394531 163.957031 C 59.050781 163.734375 58.722656 163.492188 58.414062 163.238281 C 58.914062 162.988281 59.386719 162.6875 59.820312 162.335938 C 59.925781 162.722656 60.007812 163.117188 60.070312 163.523438 " fill-opacity="1" fill-rule="nonzero"/><path fill="#ffffff" d="M 59.441406 161.515625 C 58.957031 161.9375 58.410156 162.289062 57.824219 162.554688 L 58.1875 163.347656 C 58.847656 163.046875 59.464844 162.648438 60.011719 162.171875 L 59.441406 161.515625 " fill-opacity="1" fill-rule="nonzero"/><path fill="#ffffff" d="M 61.871094 161.8125 C 61.703125 162.023438 61.527344 162.226562 61.34375 162.417969 C 60.949219 162.300781 60.570312 162.160156 60.203125 162.003906 C 60.609375 161.625 60.976562 161.199219 61.296875 160.742188 C 61.503906 161.082031 61.695312 161.441406 61.871094 161.8125 " fill-opacity="1" fill-rule="nonzero"/><path fill="#ffffff" d="M 60.703125 160.058594 C 60.355469 160.601562 59.929688 161.09375 59.441406 161.515625 L 60.011719 162.171875 C 60.5625 161.695312 61.042969 161.140625 61.4375 160.53125 L 60.703125 160.058594 " fill-opacity="1" fill-rule="nonzero"/><g clip-path="url(#abd91edbba)"><path fill="#ffffff" d="M 63.117188 159.664062 C 63.015625 159.914062 62.902344 160.15625 62.78125 160.394531 C 62.371094 160.390625 61.964844 160.367188 61.570312 160.316406 C 61.855469 159.835938 62.089844 159.328125 62.261719 158.796875 C 62.5625 159.066406 62.84375 159.355469 63.117188 159.664062 " fill-opacity="1" fill-rule="nonzero"/></g><path fill="#ffffff" d="M 61.503906 158.3125 C 61.320312 158.929688 61.050781 159.519531 60.703125 160.058594 L 61.4375 160.53125 C 61.828125 159.921875 62.132812 159.253906 62.339844 158.554688 L 61.503906 158.3125 " fill-opacity="1" fill-rule="nonzero"/><g clip-path="url(#9d472b1dd1)"><path fill="#ffffff" d="M 63.703125 157.25 C 63.679688 157.515625 63.640625 157.78125 63.589844 158.046875 C 63.195312 158.15625 62.800781 158.246094 62.40625 158.3125 C 62.542969 157.773438 62.625 157.21875 62.640625 156.660156 C 63.003906 156.832031 63.355469 157.03125 63.703125 157.25 " fill-opacity="1" fill-rule="nonzero"/></g><path fill="#ffffff" d="M 61.773438 156.40625 C 61.773438 157.050781 61.683594 157.695312 61.503906 158.3125 L 62.339844 158.554688 C 62.542969 157.859375 62.644531 157.132812 62.644531 156.40625 L 61.773438 156.40625 " fill-opacity="1" fill-rule="nonzero"/><path fill="#ffffff" d="M 55.015625 150.195312 C 51.59375 150.195312 48.804688 152.980469 48.804688 156.40625 C 48.804688 159.832031 51.59375 162.617188 55.015625 162.617188 C 58.441406 162.617188 61.230469 159.832031 61.230469 156.40625 C 61.230469 152.980469 58.441406 150.195312 55.015625 150.195312 Z M 55.015625 162.914062 C 51.429688 162.914062 48.511719 159.996094 48.511719 156.40625 C 48.511719 152.820312 51.429688 149.898438 55.015625 149.898438 C 58.605469 149.898438 61.523438 152.820312 61.523438 156.40625 C 61.523438 159.996094 58.605469 162.914062 55.015625 162.914062 " fill-opacity="1" fill-rule="nonzero"/><g fill="#fffffe" fill-opacity="1"><g transform="translate(114.030798, 137.982719)"><g><path d="M 4.21875 -16.84375 L 14.328125 -16.84375 C 14.941406 -16.84375 15.503906 -16.691406 16.015625 -16.390625 C 16.523438 -16.085938 16.929688 -15.679688 17.234375 -15.171875 C 17.535156 -14.660156 17.6875 -14.097656 17.6875 -13.484375 L 17.6875 0 L 14.328125 0 L 14.328125 -6.734375 L 4.21875 -6.734375 L 4.21875 0 L 0.84375 0 L 0.84375 -13.484375 C 0.84375 -14.097656 0.992188 -14.660156 1.296875 -15.171875 C 1.597656 -15.679688 2.003906 -16.085938 2.515625 -16.390625 C 3.023438 -16.691406 3.59375 -16.84375 4.21875 -16.84375 Z M 4.21875 -13.484375 L 4.21875 -10.109375 L 14.328125 -10.109375 L 14.328125 -13.484375 Z M 4.21875 -13.484375 "/></g></g></g><g fill="#fffffe" fill-opacity="1"><g transform="translate(132.56405, 137.982719)"><g><path d="M 14.328125 0 L 4.21875 0 C 3.59375 0 3.023438 -0.148438 2.515625 -0.453125 C 2.003906 -0.753906 1.597656 -1.160156 1.296875 -1.671875 C 0.992188 -2.179688 0.84375 -2.75 0.84375 -3.375 L 0.84375 -16.84375 L 4.21875 -16.84375 L 4.21875 -3.375 L 14.328125 -3.375 L 14.328125 -16.84375 L 17.6875 -16.84375 L 17.6875 -3.375 C 17.6875 -2.75 17.535156 -2.179688 17.234375 -1.671875 C 16.929688 -1.160156 16.523438 -0.753906 16.015625 -0.453125 C 15.503906 -0.148438 14.941406 0 14.328125 0 Z M 14.328125 0 "/></g></g></g><g fill="#fffffe" fill-opacity="1"><g transform="translate(151.097303, 137.982719)"><g><path d="M 17.6875 -16.84375 L 17.6875 -13.484375 L 10.953125 -13.484375 L 10.953125 0 L 7.578125 0 L 7.578125 -13.484375 L 0.84375 -13.484375 L 0.84375 -16.84375 Z M 17.6875 -16.84375 "/></g></g></g><g fill="#fffffe" fill-opacity="1"><g transform="translate(169.630555, 137.982719)"><g><path d="M 14.328125 0 L 4.21875 0 C 3.59375 0 3.023438 -0.148438 2.515625 -0.453125 C 2.003906 -0.753906 1.597656 -1.160156 1.296875 -1.671875 C 0.992188 -2.179688 0.84375 -2.75 0.84375 -3.375 L 0.84375 -13.484375 C 0.84375 -14.097656 0.992188 -14.660156 1.296875 -15.171875 C 1.597656 -15.679688 2.003906 -16.085938 2.515625 -16.390625 C 3.023438 -16.691406 3.59375 -16.84375 4.21875 -16.84375 L 14.328125 -16.84375 C 14.941406 -16.84375 15.503906 -16.691406 16.015625 -16.390625 C 16.523438 -16.085938 16.929688 -15.679688 17.234375 -15.171875 C 17.535156 -14.660156 17.6875 -14.097656 17.6875 -13.484375 L 17.6875 -3.375 C 17.6875 -2.769531 17.535156 -2.207031 17.234375 -1.6875 C 16.929688 -1.175781 16.523438 -0.765625 16.015625 -0.453125 C 15.515625 -0.148438 14.953125 0 14.328125 0 Z M 4.21875 -13.484375 L 4.21875 -3.375 L 14.328125 -3.375 L 14.328125 -13.484375 Z M 4.21875 -13.484375 "/></g></g></g><g fill="#fffffe" fill-opacity="1"><g transform="translate(188.163808, 137.982719)"><g/></g></g><g fill="#fffffe" fill-opacity="1"><g transform="translate(197.430439, 137.982719)"><g><path d="M 14.328125 -16.84375 C 14.941406 -16.84375 15.503906 -16.691406 16.015625 -16.390625 C 16.523438 -16.085938 16.929688 -15.679688 17.234375 -15.171875 C 17.535156 -14.660156 17.6875 -14.097656 17.6875 -13.484375 L 17.6875 -10.109375 C 17.6875 -9.492188 17.535156 -8.925781 17.234375 -8.40625 C 16.929688 -7.894531 16.523438 -7.488281 16.015625 -7.1875 C 15.503906 -6.882812 14.941406 -6.734375 14.328125 -6.734375 L 4.21875 -6.734375 L 4.21875 0 L 0.84375 0 L 0.84375 -16.84375 Z M 4.21875 -10.109375 L 14.328125 -10.109375 L 14.328125 -13.484375 L 4.21875 -13.484375 Z M 4.21875 -10.109375 "/></g></g></g><g fill="#fffffe" fill-opacity="1"><g transform="translate(215.963691, 137.982719)"><g><path d="M 4.21875 -16.84375 L 14.328125 -16.84375 C 14.941406 -16.84375 15.503906 -16.691406 16.015625 -16.390625 C 16.523438 -16.085938 16.929688 -15.679688 17.234375 -15.171875 C 17.535156 -14.660156 17.6875 -14.097656 17.6875 -13.484375 L 17.6875 0 L 14.328125 0 L 14.328125 -6.734375 L 4.21875 -6.734375 L 4.21875 0 L 0.84375 0 L 0.84375 -13.484375 C 0.84375 -14.097656 0.992188 -14.660156 1.296875 -15.171875 C 1.597656 -15.679688 2.003906 -16.085938 2.515625 -16.390625 C 3.023438 -16.691406 3.59375 -16.84375 4.21875 -16.84375 Z M 4.21875 -13.484375 L 4.21875 -10.109375 L 14.328125 -10.109375 L 14.328125 -13.484375 Z M 4.21875 -13.484375 "/></g></g></g><g fill="#fffffe" fill-opacity="1"><g transform="translate(234.496944, 137.982719)"><g><path d="M 17.6875 -13.484375 L 17.6875 -10.109375 C 17.6875 -9.492188 17.535156 -8.925781 17.234375 -8.40625 C 16.929688 -7.894531 16.523438 -7.488281 16.015625 -7.1875 C 15.503906 -6.882812 14.941406 -6.734375 14.328125 -6.734375 L 10.953125 -6.734375 L 14.328125 -3.375 L 17.6875 -3.375 L 17.6875 0 L 13.65625 0 C 13.175781 0 12.765625 -0.164062 12.421875 -0.5 L 6.1875 -6.734375 L 4.21875 -6.734375 L 4.21875 0 L 0.84375 0 L 0.84375 -16.84375 L 14.328125 -16.84375 C 14.941406 -16.84375 15.503906 -16.691406 16.015625 -16.390625 C 16.523438 -16.085938 16.929688 -15.679688 17.234375 -15.171875 C 17.535156 -14.660156 17.6875 -14.097656 17.6875 -13.484375 Z M 14.328125 -13.484375 L 4.21875 -13.484375 L 4.21875 -10.109375 L 14.328125 -10.109375 Z M 14.328125 -13.484375 "/></g></g></g><g fill="#fffffe" fill-opacity="1"><g transform="translate(253.030196, 137.982719)"><g><path d="M 17.6875 -16.84375 L 17.6875 -13.484375 L 10.953125 -13.484375 L 10.953125 0 L 7.578125 0 L 7.578125 -13.484375 L 0.84375 -13.484375 L 0.84375 -16.84375 Z M 17.6875 -16.84375 "/></g></g></g><g fill="#fffffe" fill-opacity="1"><g transform="translate(271.563449, 137.982719)"><g/></g></g><g fill="#fffffe" fill-opacity="1"><g transform="translate(280.83008, 137.982719)"><g><path d="M 14.328125 0 L 4.21875 0 C 3.59375 0 3.023438 -0.148438 2.515625 -0.453125 C 2.003906 -0.753906 1.597656 -1.160156 1.296875 -1.671875 C 0.992188 -2.179688 0.84375 -2.75 0.84375 -3.375 L 0.84375 -13.484375 C 0.84375 -14.097656 0.992188 -14.660156 1.296875 -15.171875 C 1.597656 -15.679688 2.003906 -16.085938 2.515625 -16.390625 C 3.023438 -16.691406 3.59375 -16.84375 4.21875 -16.84375 L 14.328125 -16.84375 C 14.941406 -16.84375 15.503906 -16.691406 16.015625 -16.390625 C 16.523438 -16.085938 16.929688 -15.679688 17.234375 -15.171875 C 17.535156 -14.660156 17.6875 -14.097656 17.6875 -13.484375 L 17.6875 -3.375 C 17.6875 -2.769531 17.535156 -2.207031 17.234375 -1.6875 C 16.929688 -1.175781 16.523438 -0.765625 16.015625 -0.453125 C 15.515625 -0.148438 14.953125 0 14.328125 0 Z M 4.21875 -13.484375 L 4.21875 -3.375 L 14.328125 -3.375 L 14.328125 -13.484375 Z M 4.21875 -13.484375 "/></g></g></g><g fill="#fffffe" fill-opacity="1"><g transform="translate(299.363343, 137.982719)"><g><path d="M 17.6875 0 L 4.21875 0 C 3.59375 0 3.023438 -0.148438 2.515625 -0.453125 C 2.003906 -0.753906 1.597656 -1.160156 1.296875 -1.671875 C 0.992188 -2.179688 0.84375 -2.75 0.84375 -3.375 L 0.84375 -13.484375 C 0.84375 -14.097656 0.992188 -14.660156 1.296875 -15.171875 C 1.597656 -15.679688 2.003906 -16.085938 2.515625 -16.390625 C 3.023438 -16.691406 3.59375 -16.84375 4.21875 -16.84375 L 17.6875 -16.84375 L 17.6875 -13.484375 L 4.21875 -13.484375 L 4.21875 -3.375 L 17.6875 -3.375 Z M 17.6875 0 "/></g></g></g><g fill="#fffffe" fill-opacity="1"><g transform="translate(317.896586, 137.982719)"><g><path d="M 17.6875 -16.84375 L 17.6875 -13.484375 L 4.21875 -13.484375 L 4.21875 -10.109375 L 17.6875 -10.109375 L 17.6875 -6.734375 L 4.21875 -6.734375 L 4.21875 -3.375 L 17.6875 -3.375 L 17.6875 0 L 4.21875 0 C 3.59375 0 3.023438 -0.148438 2.515625 -0.453125 C 2.003906 -0.753906 1.597656 -1.160156 1.296875 -1.671875 C 0.992188 -2.179688 0.84375 -2.75 0.84375 -3.375 L 0.84375 -13.484375 C 0.84375 -14.097656 0.992188 -14.660156 1.296875 -15.171875 C 1.597656 -15.679688 2.003906 -16.085938 2.515625 -16.390625 C 3.023438 -16.691406 3.59375 -16.84375 4.21875 -16.84375 Z M 17.6875 -16.84375 "/></g></g></g><g fill="#fffffe" fill-opacity="1"><g transform="translate(336.429828, 137.982719)"><g><path d="M 4.21875 -16.84375 L 14.328125 -16.84375 C 14.941406 -16.84375 15.503906 -16.691406 16.015625 -16.390625 C 16.523438 -16.085938 16.929688 -15.679688 17.234375 -15.171875 C 17.535156 -14.660156 17.6875 -14.097656 17.6875 -13.484375 L 17.6875 0 L 14.328125 0 L 14.328125 -6.734375 L 4.21875 -6.734375 L 4.21875 0 L 0.84375 0 L 0.84375 -13.484375 C 0.84375 -14.097656 0.992188 -14.660156 1.296875 -15.171875 C 1.597656 -15.679688 2.003906 -16.085938 2.515625 -16.390625 C 3.023438 -16.691406 3.59375 -16.84375 4.21875 -16.84375 Z M 4.21875 -13.484375 L 4.21875 -10.109375 L 14.328125 -10.109375 L 14.328125 -13.484375 Z M 4.21875 -13.484375 "/></g></g></g><g fill="#fffffe" fill-opacity="1"><g transform="translate(354.963071, 137.982719)"><g><path d="M 4.21875 0 L 0.84375 0 L 0.84375 -15.171875 C 0.84375 -15.628906 1.003906 -16.019531 1.328125 -16.34375 C 1.660156 -16.675781 2.0625 -16.84375 2.53125 -16.84375 C 2.988281 -16.84375 3.390625 -16.675781 3.734375 -16.34375 L 14.328125 -5.75 L 14.328125 -16.84375 L 17.6875 -16.84375 L 17.6875 -1.6875 C 17.6875 -1.21875 17.519531 -0.816406 17.1875 -0.484375 C 16.863281 -0.160156 16.46875 0 16 0 C 15.539062 0 15.144531 -0.164062 14.8125 -0.5 L 4.21875 -11.09375 Z M 4.21875 0 "/></g></g></g><g fill="#fffffe" fill-opacity="1"><g transform="translate(160.983305, 151.807894)"><g><path d="M 4.0625 0.078125 C 3.34375 0.078125 2.757812 0.046875 2.3125 -0.015625 C 1.863281 -0.0859375 1.515625 -0.207031 1.265625 -0.375 C 1.015625 -0.539062 0.847656 -0.765625 0.765625 -1.046875 C 0.679688 -1.335938 0.640625 -1.703125 0.640625 -2.140625 L 0.640625 -5.84375 L 1.90625 -5.84375 L 1.90625 -2.421875 C 1.90625 -2.097656 1.925781 -1.835938 1.96875 -1.640625 C 2.019531 -1.441406 2.125 -1.289062 2.28125 -1.1875 C 2.4375 -1.082031 2.65625 -1.015625 2.9375 -0.984375 C 3.21875 -0.953125 3.59375 -0.9375 4.0625 -0.9375 L 4.25 -0.9375 C 4.707031 -0.9375 5.078125 -0.953125 5.359375 -0.984375 C 5.648438 -1.015625 5.867188 -1.082031 6.015625 -1.1875 C 6.171875 -1.289062 6.273438 -1.441406 6.328125 -1.640625 C 6.378906 -1.835938 6.40625 -2.097656 6.40625 -2.421875 L 6.40625 -5.84375 L 7.6875 -5.84375 L 7.6875 -2.140625 C 7.6875 -1.710938 7.640625 -1.351562 7.546875 -1.0625 C 7.460938 -0.78125 7.296875 -0.550781 7.046875 -0.375 C 6.804688 -0.207031 6.457031 -0.0859375 6 -0.015625 C 5.550781 0.046875 4.960938 0.078125 4.234375 0.078125 Z M 4.0625 0.078125 "/></g></g></g><g fill="#fffffe" fill-opacity="1"><g transform="translate(171.621844, 151.807894)"><g><path d="M 7.4375 -1.6875 C 7.4375 -1.332031 7.394531 -1.039062 7.3125 -0.8125 C 7.238281 -0.582031 7.085938 -0.398438 6.859375 -0.265625 C 6.628906 -0.140625 6.304688 -0.0507812 5.890625 0 C 5.472656 0.0507812 4.921875 0.078125 4.234375 0.078125 L 3.953125 0.078125 C 3.191406 0.078125 2.585938 0.0546875 2.140625 0.015625 C 1.691406 -0.0234375 1.351562 -0.109375 1.125 -0.234375 C 0.894531 -0.367188 0.742188 -0.550781 0.671875 -0.78125 C 0.609375 -1.007812 0.578125 -1.3125 0.578125 -1.6875 L 0.578125 -1.875 L 1.84375 -1.875 L 1.84375 -1.734375 C 1.84375 -1.546875 1.863281 -1.394531 1.90625 -1.28125 C 1.957031 -1.175781 2.050781 -1.09375 2.1875 -1.03125 C 2.332031 -0.96875 2.535156 -0.925781 2.796875 -0.90625 C 3.066406 -0.894531 3.425781 -0.890625 3.875 -0.890625 L 4.09375 -0.890625 C 4.5625 -0.890625 4.929688 -0.898438 5.203125 -0.921875 C 5.484375 -0.941406 5.695312 -0.976562 5.84375 -1.03125 C 5.988281 -1.09375 6.082031 -1.171875 6.125 -1.265625 C 6.164062 -1.367188 6.1875 -1.5 6.1875 -1.65625 L 6.1875 -1.71875 C 6.1875 -1.875 6.164062 -2.003906 6.125 -2.109375 C 6.082031 -2.210938 5.988281 -2.289062 5.84375 -2.34375 C 5.707031 -2.40625 5.492188 -2.445312 5.203125 -2.46875 C 4.910156 -2.488281 4.519531 -2.5 4.03125 -2.5 C 3.257812 -2.5 2.648438 -2.519531 2.203125 -2.5625 C 1.765625 -2.613281 1.429688 -2.695312 1.203125 -2.8125 C 0.972656 -2.925781 0.828125 -3.085938 0.765625 -3.296875 C 0.703125 -3.515625 0.671875 -3.800781 0.671875 -4.15625 L 0.671875 -4.21875 C 0.671875 -4.5625 0.707031 -4.84375 0.78125 -5.0625 C 0.863281 -5.289062 1.015625 -5.46875 1.234375 -5.59375 C 1.453125 -5.71875 1.753906 -5.800781 2.140625 -5.84375 C 2.535156 -5.894531 3.050781 -5.921875 3.6875 -5.921875 L 3.96875 -5.921875 C 4.707031 -5.921875 5.289062 -5.894531 5.71875 -5.84375 C 6.15625 -5.789062 6.488281 -5.703125 6.71875 -5.578125 C 6.945312 -5.453125 7.09375 -5.273438 7.15625 -5.046875 C 7.226562 -4.816406 7.265625 -4.535156 7.265625 -4.203125 L 7.265625 -4.046875 L 6 -4.046875 L 6 -4.140625 C 6 -4.316406 5.976562 -4.457031 5.9375 -4.5625 C 5.894531 -4.675781 5.8125 -4.765625 5.6875 -4.828125 C 5.5625 -4.890625 5.375 -4.929688 5.125 -4.953125 C 4.882812 -4.972656 4.566406 -4.984375 4.171875 -4.984375 L 3.9375 -4.984375 C 3.488281 -4.984375 3.128906 -4.972656 2.859375 -4.953125 C 2.597656 -4.929688 2.394531 -4.894531 2.25 -4.84375 C 2.113281 -4.789062 2.023438 -4.710938 1.984375 -4.609375 C 1.953125 -4.515625 1.9375 -4.382812 1.9375 -4.21875 L 1.9375 -4.15625 C 1.9375 -4.007812 1.953125 -3.890625 1.984375 -3.796875 C 2.015625 -3.710938 2.101562 -3.644531 2.25 -3.59375 C 2.394531 -3.539062 2.613281 -3.503906 2.90625 -3.484375 C 3.207031 -3.472656 3.625 -3.46875 4.15625 -3.46875 C 4.882812 -3.46875 5.460938 -3.445312 5.890625 -3.40625 C 6.328125 -3.363281 6.660156 -3.28125 6.890625 -3.15625 C 7.117188 -3.039062 7.265625 -2.867188 7.328125 -2.640625 C 7.398438 -2.410156 7.4375 -2.113281 7.4375 -1.75 Z M 7.4375 -1.6875 "/></g></g></g><g fill="#fffffe" fill-opacity="1"><g transform="translate(181.907888, 151.807894)"><g><path d="M 6.765625 0 L 0.65625 0 L 0.65625 -5.84375 L 6.703125 -5.84375 L 6.703125 -4.875 L 1.9375 -4.875 L 1.9375 -3.46875 L 6.46875 -3.46875 L 6.46875 -2.515625 L 1.9375 -2.515625 L 1.9375 -1 L 6.765625 -1 Z M 6.765625 0 "/></g></g></g><g fill="#fffffe" fill-opacity="1"><g transform="translate(191.281579, 151.807894)"><g><path d="M 8.171875 -2.84375 C 8.171875 -2.4375 8.15625 -2.082031 8.125 -1.78125 C 8.09375 -1.476562 8.03125 -1.21875 7.9375 -1 C 7.84375 -0.789062 7.710938 -0.617188 7.546875 -0.484375 C 7.378906 -0.359375 7.160156 -0.257812 6.890625 -0.1875 C 6.617188 -0.113281 6.289062 -0.0625 5.90625 -0.03125 C 5.519531 -0.0078125 5.054688 0 4.515625 0 L 0.65625 0 L 0.65625 -5.84375 L 4.515625 -5.84375 C 5.316406 -5.84375 5.957031 -5.8125 6.4375 -5.75 C 6.914062 -5.695312 7.28125 -5.570312 7.53125 -5.375 C 7.789062 -5.175781 7.960938 -4.890625 8.046875 -4.515625 C 8.128906 -4.140625 8.171875 -3.640625 8.171875 -3.015625 Z M 4.40625 -1.015625 C 4.976562 -1.015625 5.425781 -1.035156 5.75 -1.078125 C 6.082031 -1.117188 6.332031 -1.203125 6.5 -1.328125 C 6.664062 -1.460938 6.769531 -1.648438 6.8125 -1.890625 C 6.851562 -2.140625 6.875 -2.472656 6.875 -2.890625 L 6.875 -2.984375 C 6.875 -3.410156 6.851562 -3.75 6.8125 -4 C 6.769531 -4.25 6.664062 -4.4375 6.5 -4.5625 C 6.332031 -4.6875 6.082031 -4.765625 5.75 -4.796875 C 5.425781 -4.835938 4.976562 -4.859375 4.40625 -4.859375 L 1.9375 -4.859375 L 1.9375 -1.015625 Z M 4.40625 -1.015625 "/></g></g></g><g fill="#fffffe" fill-opacity="1"><g transform="translate(202.272624, 151.807894)"><g/></g></g><g fill="#fffffe" fill-opacity="1"><g transform="translate(207.457809, 151.807894)"><g><path d="M 4.21875 0.078125 C 3.414062 0.078125 2.769531 0.046875 2.28125 -0.015625 C 1.789062 -0.0859375 1.410156 -0.222656 1.140625 -0.421875 C 0.878906 -0.628906 0.707031 -0.925781 0.625 -1.3125 C 0.550781 -1.695312 0.515625 -2.207031 0.515625 -2.84375 L 0.515625 -3.015625 C 0.515625 -3.648438 0.550781 -4.160156 0.625 -4.546875 C 0.707031 -4.929688 0.878906 -5.222656 1.140625 -5.421875 C 1.410156 -5.628906 1.789062 -5.765625 2.28125 -5.828125 C 2.769531 -5.890625 3.414062 -5.921875 4.21875 -5.921875 L 4.484375 -5.921875 C 5.296875 -5.921875 5.941406 -5.890625 6.421875 -5.828125 C 6.898438 -5.765625 7.269531 -5.628906 7.53125 -5.421875 C 7.800781 -5.222656 7.976562 -4.929688 8.0625 -4.546875 C 8.144531 -4.160156 8.1875 -3.648438 8.1875 -3.015625 L 8.1875 -2.84375 C 8.1875 -2.507812 8.175781 -2.210938 8.15625 -1.953125 C 8.132812 -1.691406 8.097656 -1.457031 8.046875 -1.25 L 8.78125 -0.84375 L 8.265625 0.015625 L 7.578125 -0.46875 C 7.304688 -0.25 6.925781 -0.101562 6.4375 -0.03125 C 5.945312 0.0390625 5.296875 0.078125 4.484375 0.078125 Z M 4.4375 -0.9375 C 4.96875 -0.9375 5.390625 -0.945312 5.703125 -0.96875 C 6.023438 -0.988281 6.28125 -1.050781 6.46875 -1.15625 L 4.4375 -2.359375 L 4.984375 -3.203125 L 6.890625 -1.96875 C 6.910156 -2.207031 6.921875 -2.515625 6.921875 -2.890625 L 6.921875 -2.984375 C 6.921875 -3.429688 6.894531 -3.785156 6.84375 -4.046875 C 6.800781 -4.304688 6.695312 -4.5 6.53125 -4.625 C 6.363281 -4.757812 6.113281 -4.84375 5.78125 -4.875 C 5.457031 -4.914062 5.007812 -4.9375 4.4375 -4.9375 L 4.265625 -4.9375 C 3.691406 -4.9375 3.238281 -4.914062 2.90625 -4.875 C 2.582031 -4.84375 2.335938 -4.757812 2.171875 -4.625 C 2.015625 -4.5 1.910156 -4.304688 1.859375 -4.046875 C 1.816406 -3.785156 1.796875 -3.429688 1.796875 -2.984375 L 1.796875 -2.890625 C 1.796875 -2.429688 1.816406 -2.070312 1.859375 -1.8125 C 1.910156 -1.5625 2.015625 -1.367188 2.171875 -1.234375 C 2.335938 -1.097656 2.582031 -1.015625 2.90625 -0.984375 C 3.238281 -0.953125 3.691406 -0.9375 4.265625 -0.9375 Z M 4.4375 -0.9375 "/></g></g></g><g fill="#fffffe" fill-opacity="1"><g transform="translate(218.60436, 151.807894)"><g><path d="M 4.0625 0.078125 C 3.34375 0.078125 2.757812 0.046875 2.3125 -0.015625 C 1.863281 -0.0859375 1.515625 -0.207031 1.265625 -0.375 C 1.015625 -0.539062 0.847656 -0.765625 0.765625 -1.046875 C 0.679688 -1.335938 0.640625 -1.703125 0.640625 -2.140625 L 0.640625 -5.84375 L 1.90625 -5.84375 L 1.90625 -2.421875 C 1.90625 -2.097656 1.925781 -1.835938 1.96875 -1.640625 C 2.019531 -1.441406 2.125 -1.289062 2.28125 -1.1875 C 2.4375 -1.082031 2.65625 -1.015625 2.9375 -0.984375 C 3.21875 -0.953125 3.59375 -0.9375 4.0625 -0.9375 L 4.25 -0.9375 C 4.707031 -0.9375 5.078125 -0.953125 5.359375 -0.984375 C 5.648438 -1.015625 5.867188 -1.082031 6.015625 -1.1875 C 6.171875 -1.289062 6.273438 -1.441406 6.328125 -1.640625 C 6.378906 -1.835938 6.40625 -2.097656 6.40625 -2.421875 L 6.40625 -5.84375 L 7.6875 -5.84375 L 7.6875 -2.140625 C 7.6875 -1.710938 7.640625 -1.351562 7.546875 -1.0625 C 7.460938 -0.78125 7.296875 -0.550781 7.046875 -0.375 C 6.804688 -0.207031 6.457031 -0.0859375 6 -0.015625 C 5.550781 0.046875 4.960938 0.078125 4.234375 0.078125 Z M 4.0625 0.078125 "/></g></g></g><g fill="#fffffe" fill-opacity="1"><g transform="translate(229.242901, 151.807894)"><g><path d="M 8.15625 0 L 6.71875 0 L 6.09375 -1.171875 L 2.046875 -1.171875 L 1.4375 0 L 0.03125 0 L 3.3125 -5.84375 L 4.921875 -5.84375 Z M 5.640625 -2.078125 L 4.125 -4.921875 L 4.0625 -4.921875 L 2.546875 -2.078125 Z M 5.640625 -2.078125 "/></g></g></g><g fill="#fffffe" fill-opacity="1"><g transform="translate(239.746663, 151.807894)"><g><path d="M 6.171875 0 L 0.65625 0 L 0.65625 -5.84375 L 1.9375 -5.84375 L 1.9375 -1.015625 L 6.171875 -1.015625 Z M 6.171875 0 "/></g></g></g><g fill="#fffffe" fill-opacity="1"><g transform="translate(248.342789, 151.807894)"><g><path d="M 1.9375 0 L 0.65625 0 L 0.65625 -5.84375 L 1.9375 -5.84375 Z M 1.9375 0 "/></g></g></g><g fill="#fffffe" fill-opacity="1"><g transform="translate(253.258416, 151.807894)"><g><path d="M 4.078125 0 L 2.796875 0 L 2.796875 -4.84375 L 0.109375 -4.84375 L 0.109375 -5.84375 L 6.78125 -5.84375 L 6.78125 -4.84375 L 4.078125 -4.84375 Z M 4.078125 0 "/></g></g></g><g fill="#fffffe" fill-opacity="1"><g transform="translate(262.455862, 151.807894)"><g><path d="M 4.578125 0 L 3.296875 0 L 3.296875 -2.125 L 0.03125 -5.84375 L 1.59375 -5.84375 L 3.953125 -3.140625 L 3.984375 -3.140625 L 6.3125 -5.84375 L 7.859375 -5.84375 L 4.578125 -2.125 Z M 4.578125 0 "/></g></g></g><g fill="#fffffe" fill-opacity="1"><g transform="translate(272.66933, 151.807894)"><g/></g></g><g fill="#fffffe" fill-opacity="1"><g transform="translate(277.854514, 151.807894)"><g><path d="M 4.34375 -2.8125 C 4.75 -2.8125 5.066406 -2.820312 5.296875 -2.84375 C 5.523438 -2.863281 5.695312 -2.90625 5.8125 -2.96875 C 5.925781 -3.039062 6 -3.140625 6.03125 -3.265625 C 6.0625 -3.398438 6.078125 -3.578125 6.078125 -3.796875 L 6.078125 -3.890625 C 6.078125 -4.109375 6.0625 -4.28125 6.03125 -4.40625 C 6 -4.539062 5.925781 -4.644531 5.8125 -4.71875 C 5.695312 -4.789062 5.523438 -4.835938 5.296875 -4.859375 C 5.066406 -4.878906 4.75 -4.890625 4.34375 -4.890625 L 1.9375 -4.890625 L 1.9375 -2.8125 Z M 1.9375 0 L 0.65625 0 L 0.65625 -5.84375 L 4.578125 -5.84375 C 5.148438 -5.84375 5.613281 -5.820312 5.96875 -5.78125 C 6.332031 -5.738281 6.613281 -5.644531 6.8125 -5.5 C 7.019531 -5.363281 7.15625 -5.171875 7.21875 -4.921875 C 7.289062 -4.671875 7.328125 -4.335938 7.328125 -3.921875 L 7.328125 -3.78125 C 7.328125 -3.363281 7.289062 -3.023438 7.21875 -2.765625 C 7.15625 -2.515625 7.019531 -2.316406 6.8125 -2.171875 C 6.613281 -2.035156 6.332031 -1.945312 5.96875 -1.90625 C 5.613281 -1.863281 5.148438 -1.84375 4.578125 -1.84375 L 1.9375 -1.84375 Z M 1.9375 0 "/></g></g></g><g fill="#fffffe" fill-opacity="1"><g transform="translate(287.85027, 151.807894)"><g><path d="M 8.15625 0 L 6.71875 0 L 6.09375 -1.171875 L 2.046875 -1.171875 L 1.4375 0 L 0.03125 0 L 3.3125 -5.84375 L 4.921875 -5.84375 Z M 5.640625 -2.078125 L 4.125 -4.921875 L 4.0625 -4.921875 L 2.546875 -2.078125 Z M 5.640625 -2.078125 "/></g></g></g><g fill="#fffffe" fill-opacity="1"><g transform="translate(298.354037, 151.807894)"><g><path d="M 4.671875 -2.859375 C 4.960938 -2.859375 5.203125 -2.875 5.390625 -2.90625 C 5.585938 -2.9375 5.738281 -2.984375 5.84375 -3.046875 C 5.945312 -3.117188 6.015625 -3.210938 6.046875 -3.328125 C 6.085938 -3.453125 6.109375 -3.601562 6.109375 -3.78125 L 6.109375 -3.921875 C 6.109375 -4.128906 6.085938 -4.296875 6.046875 -4.421875 C 6.015625 -4.546875 5.945312 -4.644531 5.84375 -4.71875 C 5.738281 -4.789062 5.582031 -4.835938 5.375 -4.859375 C 5.175781 -4.878906 4.914062 -4.890625 4.59375 -4.890625 L 1.9375 -4.890625 L 1.9375 -2.859375 Z M 7.390625 0 L 6.125 0 L 6.125 -0.5625 C 6.125 -0.851562 6.101562 -1.085938 6.0625 -1.265625 C 6.019531 -1.441406 5.9375 -1.578125 5.8125 -1.671875 C 5.695312 -1.773438 5.515625 -1.84375 5.265625 -1.875 C 5.023438 -1.90625 4.703125 -1.921875 4.296875 -1.921875 L 1.9375 -1.921875 L 1.9375 0 L 0.65625 0 L 0.65625 -5.84375 L 5.078125 -5.84375 C 5.546875 -5.84375 5.929688 -5.816406 6.234375 -5.765625 C 6.535156 -5.722656 6.769531 -5.632812 6.9375 -5.5 C 7.113281 -5.375 7.234375 -5.195312 7.296875 -4.96875 C 7.367188 -4.75 7.40625 -4.46875 7.40625 -4.125 L 7.40625 -3.90625 C 7.40625 -3.457031 7.316406 -3.117188 7.140625 -2.890625 C 6.972656 -2.671875 6.710938 -2.523438 6.359375 -2.453125 L 6.359375 -2.40625 C 6.566406 -2.375 6.738281 -2.332031 6.875 -2.28125 C 7.007812 -2.226562 7.113281 -2.144531 7.1875 -2.03125 C 7.257812 -1.925781 7.3125 -1.789062 7.34375 -1.625 C 7.375 -1.457031 7.390625 -1.238281 7.390625 -0.96875 Z M 7.390625 0 "/></g></g></g><g fill="#fffffe" fill-opacity="1"><g transform="translate(308.660814, 151.807894)"><g><path d="M 4.078125 0 L 2.796875 0 L 2.796875 -4.84375 L 0.109375 -4.84375 L 0.109375 -5.84375 L 6.78125 -5.84375 L 6.78125 -4.84375 L 4.078125 -4.84375 Z M 4.078125 0 "/></g></g></g><g fill="#fffffe" fill-opacity="1"><g transform="translate(317.858251, 151.807894)"><g><path d="M 7.4375 -1.6875 C 7.4375 -1.332031 7.394531 -1.039062 7.3125 -0.8125 C 7.238281 -0.582031 7.085938 -0.398438 6.859375 -0.265625 C 6.628906 -0.140625 6.304688 -0.0507812 5.890625 0 C 5.472656 0.0507812 4.921875 0.078125 4.234375 0.078125 L 3.953125 0.078125 C 3.191406 0.078125 2.585938 0.0546875 2.140625 0.015625 C 1.691406 -0.0234375 1.351562 -0.109375 1.125 -0.234375 C 0.894531 -0.367188 0.742188 -0.550781 0.671875 -0.78125 C 0.609375 -1.007812 0.578125 -1.3125 0.578125 -1.6875 L 0.578125 -1.875 L 1.84375 -1.875 L 1.84375 -1.734375 C 1.84375 -1.546875 1.863281 -1.394531 1.90625 -1.28125 C 1.957031 -1.175781 2.050781 -1.09375 2.1875 -1.03125 C 2.332031 -0.96875 2.535156 -0.925781 2.796875 -0.90625 C 3.066406 -0.894531 3.425781 -0.890625 3.875 -0.890625 L 4.09375 -0.890625 C 4.5625 -0.890625 4.929688 -0.898438 5.203125 -0.921875 C 5.484375 -0.941406 5.695312 -0.976562 5.84375 -1.03125 C 5.988281 -1.09375 6.082031 -1.171875 6.125 -1.265625 C 6.164062 -1.367188 6.1875 -1.5 6.1875 -1.65625 L 6.1875 -1.71875 C 6.1875 -1.875 6.164062 -2.003906 6.125 -2.109375 C 6.082031 -2.210938 5.988281 -2.289062 5.84375 -2.34375 C 5.707031 -2.40625 5.492188 -2.445312 5.203125 -2.46875 C 4.910156 -2.488281 4.519531 -2.5 4.03125 -2.5 C 3.257812 -2.5 2.648438 -2.519531 2.203125 -2.5625 C 1.765625 -2.613281 1.429688 -2.695312 1.203125 -2.8125 C 0.972656 -2.925781 0.828125 -3.085938 0.765625 -3.296875 C 0.703125 -3.515625 0.671875 -3.800781 0.671875 -4.15625 L 0.671875 -4.21875 C 0.671875 -4.5625 0.707031 -4.84375 0.78125 -5.0625 C 0.863281 -5.289062 1.015625 -5.46875 1.234375 -5.59375 C 1.453125 -5.71875 1.753906 -5.800781 2.140625 -5.84375 C 2.535156 -5.894531 3.050781 -5.921875 3.6875 -5.921875 L 3.96875 -5.921875 C 4.707031 -5.921875 5.289062 -5.894531 5.71875 -5.84375 C 6.15625 -5.789062 6.488281 -5.703125 6.71875 -5.578125 C 6.945312 -5.453125 7.09375 -5.273438 7.15625 -5.046875 C 7.226562 -4.816406 7.265625 -4.535156 7.265625 -4.203125 L 7.265625 -4.046875 L 6 -4.046875 L 6 -4.140625 C 6 -4.316406 5.976562 -4.457031 5.9375 -4.5625 C 5.894531 -4.675781 5.8125 -4.765625 5.6875 -4.828125 C 5.5625 -4.890625 5.375 -4.929688 5.125 -4.953125 C 4.882812 -4.972656 4.566406 -4.984375 4.171875 -4.984375 L 3.9375 -4.984375 C 3.488281 -4.984375 3.128906 -4.972656 2.859375 -4.953125 C 2.597656 -4.929688 2.394531 -4.894531 2.25 -4.84375 C 2.113281 -4.789062 2.023438 -4.710938 1.984375 -4.609375 C 1.953125 -4.515625 1.9375 -4.382812 1.9375 -4.21875 L 1.9375 -4.15625 C 1.9375 -4.007812 1.953125 -3.890625 1.984375 -3.796875 C 2.015625 -3.710938 2.101562 -3.644531 2.25 -3.59375 C 2.394531 -3.539062 2.613281 -3.503906 2.90625 -3.484375 C 3.207031 -3.472656 3.625 -3.46875 4.15625 -3.46875 C 4.882812 -3.46875 5.460938 -3.445312 5.890625 -3.40625 C 6.328125 -3.363281 6.660156 -3.28125 6.890625 -3.15625 C 7.117188 -3.039062 7.265625 -2.867188 7.328125 -2.640625 C 7.398438 -2.410156 7.4375 -2.113281 7.4375 -1.75 Z M 7.4375 -1.6875 "/></g></g></g></svg>