<svg width="30" height="36" viewBox="0 0 30 36" fill="none" xmlns="http://www.w3.org/2000/svg">
<path d="M26.8125 0.937513H14.2306C13.8857 0.936412 13.5441 1.00387 13.2255 1.13596C12.907 1.26806 12.6179 1.46215 12.375 1.70697L10.6786 3.39845L8.98056 1.70697C8.48833 1.21506 7.82091 0.93873 7.12501 0.93873C6.42912 0.93873 5.7617 1.21506 5.26947 1.70697L1.33197 5.64447C0.840055 6.1367 0.56373 6.80412 0.56373 7.50001C0.56373 8.19591 0.840055 8.86333 1.33197 9.35556L3.02345 11.0536L1.33197 12.75C1.08715 12.9929 0.893056 13.282 0.760962 13.6005C0.628868 13.9191 0.561412 14.2607 0.562513 14.6056V32.4375C0.562513 33.1337 0.839075 33.8014 1.33136 34.2937C1.82364 34.7859 2.49132 35.0625 3.18751 35.0625H26.8125C27.5087 35.0625 28.1764 34.7859 28.6687 34.2937C29.1609 33.8014 29.4375 33.1337 29.4375 32.4375V3.56251C29.4375 2.86632 29.1609 2.19864 28.6687 1.70636C28.1764 1.21407 27.5087 0.937513 26.8125 0.937513ZM3.18751 7.50001L7.12501 3.56251L8.82142 5.25892L4.88392 9.19642L3.18751 7.50001ZM23.6625 27.45C23.8004 27.5534 23.9166 27.683 24.0044 27.8313C24.0922 27.9796 24.1499 28.1438 24.1743 28.3144C24.1987 28.485 24.1892 28.6588 24.1465 28.8257C24.1037 28.9927 24.0284 29.1496 23.925 29.2875C23.8216 29.4254 23.692 29.5416 23.5437 29.6294C23.3954 29.7172 23.2313 29.7749 23.0606 29.7993C22.89 29.8237 22.7162 29.8142 22.5493 29.7715C22.3823 29.7287 22.2254 29.6534 22.0875 29.55L15 24.2344L7.91251 29.55C7.63404 29.7589 7.284 29.8486 6.9394 29.7993C6.5948 29.7501 6.28387 29.566 6.07501 29.2875C5.86615 29.009 5.77648 28.659 5.8257 28.3144C5.87493 27.9698 6.05904 27.6589 6.33751 27.45L12.8131 22.5938L6.33751 17.7375C6.05904 17.5287 5.87493 17.2177 5.8257 16.8731C5.77648 16.5285 5.86615 16.1785 6.07501 15.9C6.28387 15.6215 6.5948 15.4374 6.9394 15.3882C7.284 15.339 7.63404 15.4287 7.91251 15.6375L15 20.9531L22.0875 15.6375C22.366 15.4287 22.716 15.339 23.0606 15.3882C23.4052 15.4374 23.7162 15.6215 23.925 15.9C24.1339 16.1785 24.2236 16.5285 24.1743 16.8731C24.1251 17.2177 23.941 17.5287 23.6625 17.7375L17.187 22.5938L23.6625 27.45ZM22.875 8.81251H16.3125C15.9644 8.81251 15.6306 8.67423 15.3844 8.42809C15.1383 8.18195 15 7.84811 15 7.50001C15 7.15192 15.1383 6.81808 15.3844 6.57194C15.6306 6.32579 15.9644 6.18751 16.3125 6.18751H22.875C23.2231 6.18751 23.5569 6.32579 23.8031 6.57194C24.0492 6.81808 24.1875 7.15192 24.1875 7.50001C24.1875 7.84811 24.0492 8.18195 23.8031 8.42809C23.5569 8.67423 23.2231 8.81251 22.875 8.81251Z" fill="white"/>
</svg>
