<svg width="24" height="24" viewBox="0 0 24 24" fill="none" xmlns="http://www.w3.org/2000/svg">
<g clip-path="url(#clip0_136_713)">
<path d="M7.47929 17.9717H11.5792C11.7017 17.9717 11.8055 17.9254 11.8905 17.8329C11.9762 17.741 12.019 17.629 12.019 17.4967V16.8242C12.019 16.6925 11.9762 16.5805 11.8905 16.4879C11.8055 16.3961 11.7017 16.3501 11.5792 16.3501H7.48025C7.35776 16.3501 7.254 16.3961 7.16897 16.4879C7.08329 16.5805 7.04046 16.6925 7.04046 16.8242V17.4967C7.04046 17.629 7.08329 17.741 7.16897 17.8329C7.254 17.9254 7.35681 17.9717 7.47929 17.9717ZM7.38696 10.4571H11.6706C11.776 10.4571 11.8724 10.4098 11.96 10.3152C12.0482 10.2199 12.0923 10.1157 12.0923 10.0026C12.0923 9.88877 12.0482 9.78458 11.96 9.68997C11.8724 9.59469 11.776 9.54704 11.6706 9.54704H7.38696C7.28225 9.54704 7.1861 9.59469 7.09852 9.68997C7.01031 9.78458 6.96621 9.88877 6.96621 10.0026C6.96621 10.1164 7.01031 10.2202 7.09852 10.3141C7.18674 10.4081 7.28288 10.4557 7.38696 10.4571ZM7.38696 8.28123H11.6706C11.776 8.28123 11.8724 8.23393 11.96 8.13933C12.0482 8.04473 12.0923 7.94053 12.0923 7.82674C12.0923 7.71294 12.0482 7.60874 11.96 7.51414C11.8718 7.41954 11.7753 7.37224 11.6706 7.37224H7.38696C7.28225 7.37224 7.1861 7.41954 7.09852 7.51414C7.01095 7.60874 6.96684 7.71294 6.96621 7.82674C6.96557 7.94053 7.00968 8.04473 7.09852 8.13933C7.18737 8.23393 7.28351 8.28158 7.38696 8.28226M15.0576 11.1686V10.1404H16.376C16.5467 10.1404 16.687 10.0811 16.7968 9.96247C16.9065 9.84387 16.9614 9.69237 16.9614 9.50797V8.32134C16.9614 8.13625 16.9065 7.98475 16.7968 7.86684C16.687 7.74824 16.5467 7.68895 16.376 7.68895H15.0576V6.66067H16.376C16.7987 6.66067 17.1604 6.82314 17.4612 7.14807C17.762 7.47301 17.9127 7.8641 17.9134 8.32134V8.40051H19.524C19.6592 8.40051 19.7725 8.44987 19.8639 8.54859C19.9553 8.6473 20.0006 8.76967 20 8.91568C19.9994 9.0617 19.954 9.18372 19.8639 9.28175C19.7738 9.37978 19.6605 9.42879 19.524 9.42879H17.9134V9.50797C17.9134 9.96452 17.7626 10.3553 17.4612 10.6802C17.1598 11.0051 16.798 11.168 16.376 11.1686H15.0576ZM11.4326 15.3219H10.4807V11.8021H13.5202C13.6909 11.8021 13.8312 11.7428 13.941 11.6242C14.0508 11.5056 14.1057 11.3537 14.1057 11.1686V6.66067C14.1057 6.47558 14.0508 6.32408 13.941 6.20617C13.8312 6.08689 13.6909 6.02725 13.5202 6.02725H6.85673C6.33254 6.02725 5.88418 6.22879 5.51166 6.63188C5.13914 7.03496 4.95256 7.51894 4.95193 8.0838V9.7455C4.95193 10.3111 5.13851 10.795 5.51166 11.1974C5.88482 11.5998 6.33286 11.8014 6.85578 11.8021H8.57687V15.3219H7.62494V12.8303H6.85578C6.07076 12.8303 5.3987 12.5284 4.8396 11.9244C4.2805 11.3205 4.00063 10.5938 4 9.74447V8.08483C4 7.23685 4.27987 6.51088 4.8396 5.90694C5.39933 5.303 6.07139 5.00069 6.85578 5H13.5193C13.9426 5 14.3046 5.16281 14.6054 5.48843C14.9062 5.81405 15.057 6.20548 15.0576 6.66067V11.1686C15.0576 11.6259 14.9069 12.017 14.6054 12.3419C14.304 12.6668 13.9422 12.8296 13.5202 12.8303H11.4326V15.3219ZM7.24226 19C6.92178 19 6.64921 18.8787 6.42456 18.636C6.20054 18.394 6.08853 18.0999 6.08853 17.7537V16.5671C6.08853 16.2209 6.20054 15.9268 6.42456 15.6848C6.64921 15.4428 6.92178 15.3219 7.24226 15.3219H11.8182C12.1387 15.3219 12.4109 15.4428 12.6349 15.6848C12.8596 15.9268 12.9719 16.2209 12.9719 16.5671V17.7537C12.9719 18.0999 12.8596 18.394 12.6349 18.636C12.4109 18.8787 12.1387 19 11.8182 19H7.24226Z" fill="white"/>
</g>
<defs>
<clipPath id="clip0_136_713">
<rect width="24" height="24" fill="white"/>
</clipPath>
</defs>
</svg>
