<svg width="24" height="24" viewBox="0 0 24 24" fill="none" xmlns="http://www.w3.org/2000/svg">
<g clip-path="url(#clip0_116_395)">
<path fill-rule="evenodd" clip-rule="evenodd" d="M18.7097 4.1209C18.8719 4.02359 19.0619 3.98327 19.2496 4.00634C19.4373 4.0294 19.6119 4.11454 19.7457 4.24823L19.7517 4.25502C19.8858 4.38933 19.9711 4.56475 19.9939 4.75326C20.0166 4.94177 19.9756 5.13247 19.8772 5.29488L18.971 6.78972C18.8758 6.94661 18.7323 7.0684 18.562 7.13681C18.3917 7.20522 18.2039 7.21657 18.0266 7.16916L14.9465 10.2505L15.297 10.6028C16.1047 11.4101 16.0818 12.7156 15.2893 13.5085C14.9113 13.887 14.3987 14.1001 13.8638 14.101C13.8056 14.1011 13.7486 14.1175 13.6992 14.1482C13.6497 14.179 13.6098 14.2229 13.5838 14.275L12.8286 15.7859C12.706 16.0309 12.5447 16.2545 12.3509 16.4481L9.54575 19.2544C9.0684 19.7318 8.42104 20 7.74606 20C7.07108 20 6.42373 19.7318 5.94637 19.2544L4.74572 18.0541C4.5093 17.8176 4.32176 17.5369 4.19381 17.2279C4.06586 16.9189 4 16.5877 4 16.2532C4 15.9188 4.06586 15.5876 4.19381 15.2786C4.32176 14.9696 4.5093 14.6889 4.74572 14.4524L7.5509 11.6461C7.74445 11.4525 7.96793 11.2914 8.21274 11.169L9.72309 10.4135C9.77532 10.3875 9.81927 10.3474 9.84999 10.2978C9.88072 10.2481 9.89701 10.1909 9.89704 10.1325C9.89704 9.59521 10.1151 9.08164 10.4893 8.70645C11.2827 7.91361 12.5877 7.89154 13.3946 8.69881L13.7459 9.05024L16.826 5.96887C16.7784 5.79072 16.7901 5.60191 16.8593 5.43099C16.9285 5.26007 17.0514 5.11634 17.2095 5.02154L18.7097 4.1209ZM13.1451 10.8507L12.1948 9.89995C12.1263 9.83506 12.0352 9.79953 11.9408 9.80096C11.8465 9.80239 11.7565 9.84065 11.6899 9.90759C11.63 9.96721 11.5959 10.048 11.5949 10.1325C11.595 10.5062 11.491 10.8724 11.2947 11.1903C11.0983 11.5081 10.8174 11.765 10.4834 11.9321L8.97216 12.6876C8.89052 12.7286 8.81602 12.7825 8.75155 12.8472L5.94637 15.6535C5.7873 15.8127 5.69793 16.0286 5.69793 16.2537C5.69793 16.4788 5.7873 16.6946 5.94637 16.8538L7.14616 18.0541C7.30528 18.2132 7.52107 18.3026 7.74606 18.3026C7.97105 18.3026 8.18684 18.2132 8.34596 18.0541L11.1511 15.2478C11.2155 15.1832 11.2691 15.1087 11.3098 15.0271L12.065 13.5161C12.232 13.1819 12.4888 12.9009 12.8065 12.7045C13.1242 12.5081 13.4903 12.404 13.8638 12.4041C13.9488 12.4031 14.0299 12.3686 14.0895 12.3082C14.1566 12.2417 14.195 12.1517 14.1965 12.0574C14.1981 11.963 14.1628 11.8717 14.098 11.8031L13.1477 10.8524L13.1451 10.8507ZM8.94586 13.8522C9.10507 13.6931 9.32097 13.6037 9.54605 13.6038C9.77114 13.6039 9.98697 13.6934 10.1461 13.8527C10.3052 14.0119 10.3945 14.2279 10.3944 14.4531C10.3944 14.6783 10.3049 14.8942 10.1457 15.0534L8.34596 16.853C8.26819 16.9359 8.17454 17.0024 8.07058 17.0485C7.96662 17.0945 7.85447 17.1192 7.74079 17.1211C7.62711 17.1229 7.51421 17.1019 7.40881 17.0592C7.30341 17.0166 7.20766 16.9532 7.12723 16.8728C7.04681 16.7924 6.98336 16.6966 6.94065 16.5912C6.89794 16.4858 6.87684 16.3729 6.8786 16.2591C6.88037 16.1454 6.90496 16.0332 6.95092 15.9292C6.99689 15.8251 7.06328 15.7314 7.14616 15.6535L8.94586 13.8522Z" fill="white"/>
</g>
<defs>
<clipPath id="clip0_116_395">
<rect width="24" height="24" fill="white"/>
</clipPath>
</defs>
</svg>
