<svg width="24" height="24" viewBox="0 0 24 24" fill="none" xmlns="http://www.w3.org/2000/svg">
<g clip-path="url(#clip0_116_383)">
<path d="M7.669 20C7.47317 19.6203 7.31271 19.043 7.18763 18.2683C7.06254 17.4936 7 16.6991 7 15.8849C7 14.749 7.1282 13.7616 7.38459 12.9226C7.64155 12.0824 7.99756 11.3652 8.45262 10.7711V7.61405L10.5751 4H11.4241L13.5465 7.61405V10.7711C14.0157 11.3658 14.3751 12.0827 14.6247 12.9217C14.8749 13.7613 15 14.749 15 15.8849C15 16.6878 14.94 17.4795 14.82 18.2598C14.7 19.0402 14.5421 19.6203 14.3463 20C13.9048 19.8601 13.5805 19.5819 13.3733 19.1655C13.1668 18.7496 13.0649 18.3019 13.0677 17.8223C13.0677 17.4803 13.1068 17.1102 13.1849 16.7118C13.263 16.3134 13.3017 15.9261 13.3012 15.5497C13.3012 14.7316 13.1031 13.9551 12.7069 13.2205C12.3107 12.4858 11.7416 11.7777 10.9996 11.0961C10.2615 11.7997 9.69327 12.5078 9.29481 13.2205C8.89635 13.9337 8.69712 14.6777 8.69712 15.4524C8.69712 15.8722 8.73957 16.2895 8.82447 16.7042C8.90937 17.1184 8.95352 17.502 8.95691 17.8553C8.95691 18.3236 8.85277 18.7612 8.64449 19.168C8.4362 19.5748 8.11104 19.8522 7.669 20ZM10.9996 8.98011C10.7919 8.98011 10.6147 8.90986 10.4681 8.76936C10.3221 8.62886 10.2491 8.45507 10.2491 8.24799C10.2491 8.10354 10.2844 7.97066 10.3552 7.84934C10.4259 7.72803 10.5321 7.63211 10.6736 7.56157V5.50233L9.3016 7.85104V9.92467H12.6975V7.85104L11.3256 5.50233V7.56157C11.4671 7.63211 11.5732 7.72803 11.644 7.84934C11.7147 7.97066 11.7501 8.10354 11.7501 8.24799C11.7501 8.45564 11.6771 8.62971 11.531 8.77021C11.3844 8.91071 11.2073 8.98096 10.9996 8.98096" fill="white"/>
</g>
<defs>
<clipPath id="clip0_116_383">
<rect width="24" height="24" fill="white"/>
</clipPath>
</defs>
</svg>
