<svg width="38" height="38" viewBox="0 0 38 38" fill="none" xmlns="http://www.w3.org/2000/svg">
<path fill-rule="evenodd" clip-rule="evenodd" d="M37.3749 9.81253C37.3751 11.0335 37.1319 12.2423 36.6596 13.3683C36.1872 14.4942 35.4952 15.5147 34.6239 16.3701C33.7526 17.2256 32.7195 17.8987 31.5851 18.3503C30.4507 18.8018 29.2376 19.0227 28.0168 19C25.418 18.9502 22.5226 19.3465 20.9293 21.3967L10.088 35.3354C9.62758 35.9276 9.04644 36.4152 8.38316 36.7656C7.71988 37.1161 6.98964 37.3214 6.24092 37.368C5.4922 37.4147 4.74213 37.3015 4.04049 37.036C3.33886 36.7706 2.70172 36.3589 2.17136 35.8284C1.64101 35.2978 1.22957 34.6606 0.964367 33.9588C0.699162 33.2571 0.586257 32.507 0.633146 31.7583C0.680034 31.0096 0.885645 30.2794 1.23633 29.6163C1.58701 28.9531 2.07474 28.3721 2.66715 27.9119L16.6033 17.0707C18.6508 15.4773 19.0498 12.5819 19.0025 9.98315L18.9999 9.81253C18.9994 8.38666 19.3309 6.98025 19.9679 5.70461C20.605 4.42898 21.5303 3.31914 22.6704 2.46292C23.8106 1.6067 25.1344 1.02762 26.5371 0.771501C27.9398 0.515381 29.3828 0.589256 30.752 0.987278C31.6051 1.23403 31.7758 2.2919 31.1458 2.91928L25.8249 8.24278C25.5965 8.46468 25.4607 8.76481 25.4446 9.08281C25.4285 9.40082 25.5335 9.71311 25.7383 9.9569C26.4505 10.7829 27.2196 11.552 28.0456 12.2643C28.2894 12.4691 28.6017 12.574 28.9197 12.5579C29.2377 12.5419 29.5379 12.406 29.7598 12.1777L35.0807 6.85678C35.708 6.22678 36.7659 6.3974 37.0126 7.25053C37.2506 8.06603 37.3714 8.92003 37.3749 9.81253ZM7.84365 32.125C7.84365 32.6472 7.63623 33.1479 7.26701 33.5171C6.8978 33.8864 6.39704 34.0938 5.8749 34.0938C5.35275 34.0938 4.85199 33.8864 4.48278 33.5171C4.11357 33.1479 3.90615 32.6472 3.90615 32.125C3.90615 31.6029 4.11357 31.1021 4.48278 30.7329C4.85199 30.3637 5.35275 30.1563 5.8749 30.1563C6.39704 30.1563 6.8978 30.3637 7.26701 30.7329C7.63623 31.1021 7.84365 31.6029 7.84365 32.125Z" fill="white"/>
<path d="M28.1874 22.9375C29.0099 22.9375 29.8123 22.864 30.5945 22.717L35.7448 27.8673C36.7891 28.9116 37.3757 30.3279 37.3757 31.8048C37.3757 33.2816 36.7891 34.698 35.7448 35.7423C34.7005 36.7866 33.2841 37.3732 31.8073 37.3732C30.3304 37.3732 28.9141 36.7866 27.8698 35.7423L20.4935 28.366L24.0373 23.8143C24.1685 23.6463 24.452 23.3995 25.1555 23.2027C25.8853 22.9979 26.8329 22.9139 27.9433 22.9349L28.1874 22.9375ZM11.1249 8.50003L14.9206 12.2932C14.8894 12.479 14.8483 12.663 14.7973 12.8444C14.6004 13.5479 14.3536 13.834 14.1856 13.9653L12.5844 15.2095L8.4999 11.125H4.9719C4.84963 11.125 4.72979 11.0909 4.62589 11.0264C4.522 10.9619 4.43819 10.8697 4.3839 10.7602L0.840147 3.67265C0.778349 3.54929 0.757007 3.40958 0.779156 3.27339C0.801304 3.1372 0.865816 3.01145 0.963522 2.91403L2.91915 0.958403C3.01657 0.860697 3.14232 0.796185 3.27851 0.774036C3.4147 0.751888 3.55441 0.773229 3.67777 0.835028L10.7653 4.37878C10.8738 4.43379 10.965 4.51792 11.0285 4.62176C11.092 4.7256 11.1254 4.84506 11.1249 4.96678V8.50003Z" fill="white"/>
</svg>
