<svg width="40" height="40" viewBox="0 0 40 40" fill="none" xmlns="http://www.w3.org/2000/svg">
<path d="M20 0.722656C14.8873 0.722656 9.98406 2.75366 6.36886 6.36886C2.75366 9.98406 0.722656 14.8873 0.722656 20C0.722656 25.1127 2.75366 30.0159 6.36886 33.6311C9.98406 37.2463 14.8873 39.2773 20 39.2773C22.5315 39.2773 25.0383 38.7787 27.3771 37.8099C29.716 36.8412 31.8411 35.4212 33.6311 33.6311C35.4212 31.8411 36.8412 29.716 37.8099 27.3771C38.7787 25.0383 39.2773 22.5315 39.2773 20C39.2773 17.4685 38.7787 14.9617 37.8099 12.6229C36.8412 10.284 35.4212 8.15893 33.6311 6.36886C31.8411 4.57879 29.716 3.15883 27.3771 2.19006C25.0383 1.22128 22.5315 0.722656 20 0.722656ZM20 7.44922C26.9229 7.44922 32.5508 13.0771 32.5508 20C32.5508 26.9229 26.9229 32.5508 20 32.5508C13.0771 32.5508 7.44922 26.9229 7.44922 20C7.44922 13.0771 13.0771 7.44922 20 7.44922ZM20 8.92578C18.3252 8.92578 16.7387 9.29656 15.3168 9.95954C16.2641 12.6567 17.8851 16.0625 20 16.0625C22.1183 16.0625 23.6853 12.6459 24.6554 9.94666C23.2406 9.29181 21.6639 8.92578 20 8.92578ZM28.1008 12.4433C25.8273 14.1777 23.0852 16.7737 23.7391 18.7865C24.3938 20.8015 28.1285 21.2358 30.9956 21.3242C31.0471 20.89 31.0742 20.4483 31.0742 20C31.0742 17.0762 29.9459 14.4209 28.1008 12.4433ZM11.8808 12.4632C10.0466 14.4386 8.92578 17.086 8.92578 20C8.92578 20.4553 8.95367 20.9038 9.00683 21.3445C11.8642 21.2768 15.6006 20.7873 16.2538 18.7769C16.9079 16.7637 14.1472 14.2198 11.8808 12.4632ZM17.6384 16.0433C17.4897 16.0475 17.3457 16.0965 17.2254 16.1839C17.067 16.299 16.9608 16.4723 16.9302 16.6657C16.8996 16.859 16.9471 17.0566 17.0621 17.215C17.1772 17.3734 17.3505 17.4797 17.5438 17.5103C17.7372 17.541 17.9348 17.4936 18.0933 17.3785C18.1717 17.3215 18.2382 17.2497 18.2888 17.167C18.3395 17.0843 18.3734 16.9925 18.3886 16.8967C18.4038 16.801 18.3999 16.7031 18.3773 16.6089C18.3546 16.5146 18.3137 16.4257 18.2567 16.3472C18.1861 16.2501 18.0929 16.1717 17.9852 16.1187C17.8774 16.0658 17.7584 16.0399 17.6384 16.0433ZM22.3616 16.0433C22.3442 16.0428 22.3268 16.0429 22.3093 16.0436C22.1982 16.0483 22.0896 16.0781 21.9916 16.1306C21.8936 16.1832 21.8087 16.2572 21.7433 16.3471C21.6863 16.4256 21.6453 16.5145 21.6227 16.6088C21.6 16.7031 21.5962 16.8009 21.6114 16.8967C21.6266 16.9925 21.6604 17.0843 21.7111 17.167C21.7618 17.2497 21.8283 17.3215 21.9067 17.3785C22.0651 17.4936 22.2628 17.541 22.4561 17.5104C22.6495 17.4797 22.8228 17.3735 22.9379 17.2151C23.0529 17.0567 23.1004 16.8591 23.0698 16.6658C23.0392 16.4724 22.933 16.2991 22.7746 16.184C22.6543 16.0966 22.5103 16.0475 22.3616 16.0433ZM20 17.375C19.3038 17.375 18.6361 17.6516 18.1438 18.1438C17.6516 18.6361 17.375 19.3038 17.375 20C17.375 20.6962 17.6516 21.3639 18.1438 21.8562C18.6361 22.3484 19.3038 22.625 20 22.625C20.6962 22.625 21.3639 22.3484 21.8562 21.8562C22.3484 21.3639 22.625 20.6962 22.625 20C22.625 19.3038 22.3484 18.6361 21.8562 18.1438C21.3639 17.6516 20.6962 17.375 20 17.375ZM16.2022 20.4952C16.1283 20.4963 16.055 20.5085 15.9847 20.5313C15.8924 20.5613 15.807 20.6091 15.7333 20.672C15.6595 20.735 15.5989 20.8119 15.5549 20.8983C15.5109 20.9847 15.4843 21.0789 15.4767 21.1755C15.469 21.2722 15.4806 21.3694 15.5105 21.4616C15.571 21.6478 15.703 21.8024 15.8775 21.8913C16.0519 21.9801 16.2545 21.9961 16.4407 21.9356C16.533 21.9057 16.6184 21.8578 16.6921 21.7949C16.7658 21.7319 16.8264 21.6551 16.8705 21.5687C16.9145 21.4823 16.9411 21.3881 16.9487 21.2914C16.9563 21.1948 16.9448 21.0976 16.9149 21.0054C16.8662 20.8554 16.7707 20.7249 16.6424 20.6331C16.5142 20.5413 16.3599 20.493 16.2022 20.4952ZM23.8193 20.4959C23.6581 20.4889 23.499 20.5349 23.3664 20.6269C23.2338 20.7189 23.135 20.8518 23.0851 21.0053C23.0552 21.0975 23.0437 21.1947 23.0513 21.2914C23.0589 21.388 23.0855 21.4822 23.1295 21.5686C23.1736 21.655 23.2342 21.7319 23.3079 21.7948C23.3816 21.8578 23.467 21.9056 23.5593 21.9355C23.7455 21.996 23.9481 21.9801 24.1225 21.8912C24.297 21.8023 24.429 21.6478 24.4895 21.4616C24.5194 21.3694 24.5309 21.2722 24.5233 21.1755C24.5157 21.0789 24.4891 20.9847 24.4451 20.8983C24.4011 20.8119 24.3405 20.735 24.2667 20.672C24.193 20.6091 24.1076 20.5613 24.0153 20.5313C23.9519 20.5107 23.8859 20.4988 23.8193 20.4959ZM16.2607 22.7692C14.4896 22.7777 12.1394 24.15 10.3197 25.3883C11.8806 28.1911 14.623 30.2416 17.8783 30.871C18.6978 28.132 19.3893 24.4219 17.6776 23.1784C17.2794 22.8891 16.7968 22.7666 16.2607 22.7692ZM23.7268 22.7709C23.1871 22.7709 22.7021 22.8952 22.3039 23.1845C20.5899 24.4298 21.3308 28.115 22.1326 30.869C25.3882 30.2361 28.1298 28.1816 29.6877 25.3751C27.8825 24.1263 25.5095 22.7709 23.7268 22.7709ZM20 23.2468C19.8042 23.2468 19.6164 23.3246 19.478 23.463C19.3395 23.6015 19.2617 23.7893 19.2617 23.9851C19.2617 24.1809 19.3395 24.3687 19.478 24.5071C19.6164 24.6456 19.8042 24.7234 20 24.7234C20.1958 24.7234 20.3836 24.6456 20.522 24.5071C20.6605 24.3687 20.7383 24.1809 20.7383 23.9851C20.7383 23.7893 20.6605 23.6015 20.522 23.463C20.3836 23.3246 20.1958 23.2468 20 23.2468Z" fill="white"/>
</svg>
